<svg width="52" height="52" viewBox="0 0 52 52" fill="none" xmlns="http://www.w3.org/2000/svg">
<g clip-path="url(#clip0_14061_11282)">
<path d="M8 21.7129V34.57" stroke="black" stroke-width="2" stroke-linecap="round" stroke-linejoin="round"/>
<path d="M25.5 11V17.4286" stroke="black" stroke-width="2" stroke-linecap="round" stroke-linejoin="round"/>
<path d="M21.167 11H29.8337" stroke="black" stroke-width="2" stroke-linecap="round" stroke-linejoin="round"/>
<path d="M12.3333 28.1406H8" stroke="black" stroke-width="2" stroke-linecap="round" stroke-linejoin="round"/>
<path d="M12.5 21.7134H16.8333L21.1667 17.4277H28.4943C28.8966 17.4279 29.2909 17.5389 29.633 17.7482C29.9751 17.9575 30.2515 18.2568 30.4313 18.6127L33.5687 24.8142C33.7485 25.17 34.0249 25.4694 34.367 25.6787C34.7091 25.888 35.1034 25.999 35.5057 25.9992H38.5V21.7134H42.8333C43.408 21.7134 43.9591 21.9392 44.3654 22.3411C44.7717 22.7429 45 23.288 45 23.8563V36.7134C45 37.2818 44.7717 37.8268 44.3654 38.2287C43.9591 38.6305 43.408 38.8563 42.8333 38.8563H38.5V34.5706H32V38.8563C32 39.4246 31.7717 39.9697 31.3654 40.3715C30.9591 40.7734 30.408 40.9992 29.8333 40.9992H22.3258C21.9692 40.9992 21.6181 40.9122 21.3036 40.7459C20.9892 40.5795 20.7211 40.339 20.5232 40.0456L16.8333 34.5706H12.5V21.7134Z" stroke="black" stroke-width="2" stroke-linecap="round" stroke-linejoin="round"/>
<path d="M25.8889 24L22 28.8H27L23.6667 33" stroke="black" stroke-width="2" stroke-linecap="round" stroke-linejoin="round"/>
</g>
<defs>
<clipPath id="clip0_14061_11282">
<rect width="52" height="52" fill="white"/>
</clipPath>
</defs>
</svg>
