<svg width="52" height="52" viewBox="0 0 52 52" fill="none" xmlns="http://www.w3.org/2000/svg">
<path d="M6 17H46M6 17V47H46V17M6 17H4L26 5L48 17H46" stroke="black" stroke-width="2" stroke-linecap="round" stroke-linejoin="round"/>
<path d="M10 21H42V47H10V21Z" stroke="black" stroke-width="2" stroke-linecap="round" stroke-linejoin="round"/>
<line x1="11" y1="27" x2="41" y2="27" stroke="black" stroke-width="2" stroke-linecap="round" stroke-linejoin="round"/>
<line x1="11" y1="30" x2="41" y2="30" stroke="black" stroke-width="2" stroke-linecap="round" stroke-linejoin="round"/>
<line x1="11" y1="24" x2="41" y2="24" stroke="black" stroke-width="2" stroke-linecap="round" stroke-linejoin="round"/>
<rect x="14" y="41" width="3" height="6" stroke="black" stroke-width="2" stroke-linecap="round" stroke-linejoin="round"/>
<rect x="17" y="37" width="7" height="10" stroke="black" stroke-width="2" stroke-linecap="round" stroke-linejoin="round"/>
<path d="M20.5 37V40" stroke="black" stroke-width="2" stroke-linecap="round" stroke-linejoin="round"/>
<path d="M33 41H28V47H38V41H33ZM33 41V43" stroke="black" stroke-width="2" stroke-linecap="round" stroke-linejoin="round"/>
<path d="M33 36H29V41H37V36H33ZM33 36V38" stroke="black" stroke-width="2" stroke-linecap="round" stroke-linejoin="round"/>
</svg>
