<svg width="52" height="52" viewBox="0 0 52 52" fill="none" xmlns="http://www.w3.org/2000/svg">
<g clip-path="url(#clip0_14080_11868)">
<path d="M6.21921 14H25.7808C26.156 13.9998 26.5251 14.1025 26.8536 14.2987C27.1821 14.4948 27.4593 14.7779 27.6591 15.1215C27.859 15.4651 27.975 15.858 27.9964 16.2633C28.0178 16.6686 27.9438 17.0732 27.7813 17.4392L24.5876 24.6392C24.4067 25.0466 24.1232 25.3905 23.7697 25.6313C23.4161 25.872 23.007 25.9998 22.5893 26H9.41072C8.99302 25.9998 8.58385 25.872 8.23033 25.6313C7.8768 25.3905 7.59329 25.0466 7.41242 24.6392L4.2187 17.4392C4.05632 17.0734 3.9823 16.6691 4.00357 16.2639C4.02483 15.8588 4.14069 15.4661 4.34029 15.1225C4.5399 14.779 4.81674 14.4958 5.14495 14.2995C5.47315 14.1032 5.84421 14.0002 6.21921 14Z" stroke="black" stroke-width="2" stroke-linecap="round" stroke-linejoin="round"/>
<path d="M11.01 14L9.06392 8.53533C9.00156 8.36023 8.98451 8.17378 9.01417 7.99131C9.04383 7.80884 9.11936 7.63556 9.23456 7.4857C9.34975 7.33583 9.50132 7.21367 9.67681 7.12923C9.8523 7.0448 10.0467 7.00051 10.2441 7H21.751C21.9487 6.99977 22.1437 7.04352 22.3199 7.12764C22.496 7.21176 22.6482 7.33384 22.764 7.4838C22.8797 7.63377 22.9557 7.80733 22.9856 7.99016C23.0156 8.17299 22.9986 8.35985 22.9361 8.53533L20.99 14" stroke="black" stroke-width="2" stroke-linecap="round" stroke-linejoin="round"/>
<path d="M16 5V7" stroke="black" stroke-width="2" stroke-linecap="round" stroke-linejoin="round"/>
<path d="M11 27V47H21V27" stroke="black" stroke-width="2" stroke-linecap="round" stroke-linejoin="round"/>
<path d="M7 47H47" stroke="black" stroke-width="2" stroke-linecap="round" stroke-linejoin="round"/>
<path d="M21.0005 40H39.0005C40.2289 40 41.6319 40.6314 42.5005 41.5C43.3691 42.3686 44.0005 43.7716 44.0005 45L44.004 46.9992" stroke="black" stroke-width="2" stroke-linecap="round" stroke-linejoin="round"/>
<path d="M41.1385 17.695L44.305 14.634C44.711 14.228 45.2615 14 45.8355 14C46.4096 14 46.9601 14.228 47.366 14.634C47.772 15.0399 48 15.5904 48 16.1645C48 16.7385 47.772 17.289 47.366 17.695L44.305 20.8615L46.9438 28.7779L44.305 31.4695L40.6107 24.5558L37.4442 27.7224V30.889L35.3331 33L33.7498 28.2502L29 26.6669L31.111 24.5558H34.2776L37.4442 21.3893L30.5833 17.695L33.2221 15.0562L41.1385 17.695Z" stroke="black" stroke-width="2" stroke-linecap="round" stroke-linejoin="round"/>
</g>
<defs>
<clipPath id="clip0_14080_11868">
<rect width="52" height="52" fill="white"/>
</clipPath>
</defs>
</svg>
