<svg width="52" height="52" viewBox="0 0 52 52" fill="none" xmlns="http://www.w3.org/2000/svg">
<g clip-path="url(#clip0_14084_11919)">
<path d="M30.0064 6.99805H21.939L25.9727 13.7833L30.0064 6.99805Z" stroke="black" stroke-width="2" stroke-linecap="round" stroke-linejoin="round"/>
<path d="M15.8877 34.9336H36.0562" stroke="black" stroke-width="2" stroke-linecap="round" stroke-linejoin="round"/>
<path d="M25.9707 13.7812L25.9707 34.9353" stroke="black" stroke-width="2" stroke-linecap="round" stroke-linejoin="round"/>
<path d="M23.5518 13.7812C26.7023 13.7812 25.2417 13.7812 28.3922 13.7812" stroke="black" stroke-width="2" stroke-linecap="round" stroke-linejoin="round"/>
<path d="M14.4619 9.09766H22.5293" stroke="black" stroke-width="2" stroke-linecap="round" stroke-linejoin="round"/>
<path d="M29.4409 9.09766C32.6335 9.09766 34.4235 9.09766 37.616 9.09766" stroke="black" stroke-width="2" stroke-linecap="round" stroke-linejoin="round"/>
<line x1="25.8418" y1="6" x2="25.8418" y2="5.99566" stroke="black" stroke-width="2" stroke-linecap="round" stroke-linejoin="round"/>
<path d="M42.8049 20.6044C42.8049 23.0668 40.728 25.0629 38.1661 25.0629C35.6042 25.0629 33.5273 23.0668 33.5273 20.6044M42.8049 20.6044L37.9026 9.09766L33.5273 20.6044M42.8049 20.6044H33.5273" stroke="black" stroke-width="2" stroke-linecap="round" stroke-linejoin="round"/>
<path d="M19.3019 20.6044C19.3019 23.0668 17.2251 25.0629 14.6632 25.0629C12.1013 25.0629 10.0244 23.0668 10.0244 20.6044M19.3019 20.6044L14.3996 9.09766L10.0244 20.6044M19.3019 20.6044H10.0244" stroke="black" stroke-width="2" stroke-linecap="round" stroke-linejoin="round"/>
<path d="M39.0994 41.8778C39.0994 44.7066 41.217 46.9998 43.8293 46.9998H13.7299C11.1176 46.9998 9 44.7066 9 41.8778C9 39.049 11.1176 36.7559 13.7299 36.7559H43.8293C41.217 36.7559 39.0994 39.049 39.0994 41.8778ZM39.0994 41.8778H28.5646" stroke="black" stroke-width="2" stroke-linecap="round" stroke-linejoin="round"/>
</g>
<defs>
<clipPath id="clip0_14084_11919">
<rect width="52" height="52" fill="white"/>
</clipPath>
</defs>
</svg>
