<svg width="52" height="52" viewBox="0 0 52 52" fill="none" xmlns="http://www.w3.org/2000/svg">
<g clip-path="url(#clip0_14085_11264)">
<path d="M5 47L47 47" stroke="black" stroke-width="2" stroke-linecap="round" stroke-linejoin="round"/>
<path d="M11.8604 29.6564V17.6092L17.0801 9.50329L28.5635 5L40.0468 9.50329L45.2666 17.6092V46.2665" stroke="black" stroke-width="2" stroke-linecap="round" stroke-linejoin="round"/>
<path d="M25.6157 14.8246C25.6157 15.6063 25.9263 16.356 26.4791 16.9088C27.0318 17.4616 27.7816 17.7722 28.5633 17.7722C29.3451 17.7722 30.0948 17.4616 30.6476 16.9088C31.2004 16.356 31.5109 15.6063 31.5109 14.8246C31.5109 14.0428 31.2004 13.2931 30.6476 12.7403C30.0948 12.1875 29.3451 11.877 28.5633 11.877C27.7816 11.877 27.0318 12.1875 26.4791 12.7403C25.9263 13.2931 25.6157 14.0428 25.6157 14.8246Z" stroke="black" stroke-width="2" stroke-linecap="round" stroke-linejoin="round"/>
<path d="M17.7554 29.5806V26.1769C17.7554 25.5115 18.1349 24.8734 18.8106 24.4028C19.4862 23.9323 20.4025 23.668 21.358 23.668H35.7685C36.724 23.668 37.6403 23.9323 38.316 24.4028C38.9916 24.8734 39.3711 25.5115 39.3711 26.1769V45.2837" stroke="black" stroke-width="2" stroke-linecap="round" stroke-linejoin="round"/>
<path d="M18.2471 24.6513L39.371 46.267" stroke="black" stroke-width="2" stroke-linecap="round" stroke-linejoin="round"/>
<path d="M38.3885 24.6531L24.1419 38.5829" stroke="black" stroke-width="2" stroke-linecap="round" stroke-linejoin="round"/>
<path d="M6 42.3138C6 43.1958 6.35036 44.0416 6.97402 44.6653C7.59767 45.2889 8.44353 45.6393 9.3255 45.6393C10.2075 45.6393 11.0533 45.2889 11.677 44.6653C12.3006 44.0416 12.651 43.1958 12.651 42.3138C12.651 41.4318 12.3006 40.586 11.677 39.9623C11.0533 39.3386 10.2075 38.9883 9.3255 38.9883C8.44353 38.9883 7.59767 39.3386 6.97402 39.9623C6.35036 40.586 6 41.4318 6 42.3138Z" stroke="black" stroke-width="2" stroke-linecap="round" stroke-linejoin="round"/>
<path d="M9.32617 42.3145V42.3229" stroke="black" stroke-width="2" stroke-linecap="round" stroke-linejoin="round"/>
<path d="M17.6396 43.9772C17.6396 44.4182 17.8148 44.8411 18.1267 45.1529C18.4385 45.4648 18.8614 45.64 19.3024 45.64C19.7434 45.64 20.1663 45.4648 20.4781 45.1529C20.79 44.8411 20.9652 44.4182 20.9652 43.9772C20.9652 43.5362 20.79 43.1133 20.4781 42.8015C20.1663 42.4896 19.7434 42.3145 19.3024 42.3145C18.8614 42.3145 18.4385 42.4896 18.1267 42.8015C17.8148 43.1133 17.6396 43.5362 17.6396 43.9772Z" stroke="black" stroke-width="2" stroke-linecap="round" stroke-linejoin="round"/>
<path d="M12.2354 43.9766H17.6393" stroke="black" stroke-width="2" stroke-linecap="round" stroke-linejoin="round"/>
<path d="M20.1337 42.48V38.9883C20.1337 38.7678 20.0461 38.5563 19.8902 38.4004C19.7343 38.2445 19.5228 38.1569 19.3024 38.1569H14.3141L12.6513 34H7.66309V39.4039" stroke="black" stroke-width="2" stroke-linecap="round" stroke-linejoin="round"/>
<path d="M18.4713 34H17.64C17.4195 34 17.208 34.0876 17.0521 34.2435C16.8962 34.3994 16.8086 34.6109 16.8086 34.8314V38.1569" stroke="black" stroke-width="2" stroke-linecap="round" stroke-linejoin="round"/>
</g>
<defs>
<clipPath id="clip0_14085_11264">
<rect width="52" height="52" fill="white"/>
</clipPath>
</defs>
</svg>
