<svg width="52" height="52" viewBox="0 0 52 52" fill="none" xmlns="http://www.w3.org/2000/svg">
<path d="M6.90909 17H45.0909M6.90909 17V20H45.0909V17M6.90909 17H5L26 5L47 17H45.0909" stroke="black" stroke-width="2" stroke-linecap="round" stroke-linejoin="round"/>
<path d="M6.90909 47H45.0909M6.90909 47V44H45.0909V47M6.90909 47H5M45.0909 47H47" stroke="black" stroke-width="2" stroke-linecap="round" stroke-linejoin="round"/>
<rect x="9" y="20" width="7" height="3" stroke="black" stroke-width="2" stroke-linecap="round" stroke-linejoin="round"/>
<rect x="9" y="41" width="7" height="3" stroke="black" stroke-width="2" stroke-linecap="round" stroke-linejoin="round"/>
<rect x="11" y="23" width="3" height="18" stroke="black" stroke-width="2" stroke-linecap="round" stroke-linejoin="round"/>
<rect x="24" y="23" width="4" height="18" stroke="black" stroke-width="2" stroke-linecap="round" stroke-linejoin="round"/>
<rect x="38" y="23" width="3" height="18" stroke="black" stroke-width="2" stroke-linecap="round" stroke-linejoin="round"/>
<rect x="22" y="20" width="8" height="3" stroke="black" stroke-width="2" stroke-linecap="round" stroke-linejoin="round"/>
<rect x="22" y="41" width="8" height="3" stroke="black" stroke-width="2" stroke-linecap="round" stroke-linejoin="round"/>
<rect x="36" y="20" width="7" height="3" stroke="black" stroke-width="2" stroke-linecap="round" stroke-linejoin="round"/>
<rect x="36" y="41" width="7" height="3" stroke="black" stroke-width="2" stroke-linecap="round" stroke-linejoin="round"/>
</svg>
