<svg width="52" height="52" viewBox="0 0 52 52" fill="none" xmlns="http://www.w3.org/2000/svg">
<path d="M7 47V9.47059C7 7.23529 9.44444 5 11.8889 5H24.1111C26.5556 5 29 7.23529 29 9.47059V47" stroke="black" stroke-width="2" stroke-linecap="round" stroke-linejoin="round"/>
<rect x="12" y="13" width="2" height="2" stroke="black" stroke-width="2" stroke-linecap="round" stroke-linejoin="round"/>
<rect x="12" y="21" width="2" height="2" stroke="black" stroke-width="2" stroke-linecap="round" stroke-linejoin="round"/>
<rect x="12" y="29" width="2" height="2" stroke="black" stroke-width="2" stroke-linecap="round" stroke-linejoin="round"/>
<rect x="12" y="37" width="2" height="2" stroke="black" stroke-width="2" stroke-linecap="round" stroke-linejoin="round"/>
<rect x="22" y="13" width="2" height="2" stroke="black" stroke-width="2" stroke-linecap="round" stroke-linejoin="round"/>
<rect x="22" y="21" width="2" height="2" stroke="black" stroke-width="2" stroke-linecap="round" stroke-linejoin="round"/>
<rect x="36" y="21" width="2" height="2" stroke="black" stroke-width="2" stroke-linecap="round" stroke-linejoin="round"/>
<rect x="22" y="29" width="2" height="2" stroke="black" stroke-width="2" stroke-linecap="round" stroke-linejoin="round"/>
<rect x="36" y="29" width="2" height="2" stroke="black" stroke-width="2" stroke-linecap="round" stroke-linejoin="round"/>
<rect x="22" y="37" width="2" height="2" stroke="black" stroke-width="2" stroke-linecap="round" stroke-linejoin="round"/>
<rect x="36" y="37" width="2" height="2" stroke="black" stroke-width="2" stroke-linecap="round" stroke-linejoin="round"/>
<path d="M33 13H38C40.5 13 43 15.3077 43 17.6154V47" stroke="black" stroke-width="2" stroke-linecap="round" stroke-linejoin="round"/>
<path d="M5 47H47" stroke="black" stroke-width="2" stroke-linecap="round" stroke-linejoin="round"/>
</svg>
