<svg width="52" height="52" viewBox="0 0 52 52" fill="none" xmlns="http://www.w3.org/2000/svg">
<path d="M16.2549 39.9355H47.0001" stroke="black" stroke-width="2" stroke-linecap="round" stroke-linejoin="round"/>
<path d="M19.7485 27.9931C19.7485 21.3976 25.0953 16.0508 31.6909 16.0508V16.0508C38.2865 16.0508 43.6332 21.3976 43.6332 27.9931V39.9355H19.7485V27.9931Z" stroke="black" stroke-width="2" stroke-linecap="round" stroke-linejoin="round"/>
<line x1="31.5" y1="14" x2="31.5" y2="18.6064" stroke="black" stroke-width="2" stroke-linecap="round" stroke-linejoin="round"/>
<line x1="29.8325" y1="18.6074" x2="33.2955" y2="18.6074" stroke="black" stroke-width="2" stroke-linecap="round" stroke-linejoin="round"/>
<path d="M23.2422 30.6541C23.2422 29.65 24.0562 28.8359 25.0604 28.8359H38.8929C39.897 28.8359 40.7111 29.6508 40.7111 30.6549C40.7111 33.393 40.7111 35.4589 40.7111 38.197C40.7111 39.2012 39.897 40.016 38.8929 40.016H25.0604C24.0562 40.016 23.2422 39.202 23.2422 38.1978V30.6541Z" stroke="black" stroke-width="2" stroke-linecap="round" stroke-linejoin="round"/>
<path d="M28.1338 27.2866C28.1338 26.4833 28.785 25.832 29.5883 25.832H33.6668C34.4701 25.832 35.1213 26.4833 35.1213 27.2866V28.4365H28.1338V27.2866Z" stroke="black" stroke-width="2" stroke-linecap="round"/>
<circle cx="42.109" cy="44.2095" r="2.09626" stroke="black" stroke-width="2" stroke-linecap="round"/>
<circle cx="22.5435" cy="44.2095" r="2.09626" stroke="black" stroke-width="2" stroke-linecap="round"/>
<path d="M12.1308 18L10.9849 21.9472H16.842L15.7597 18H12.1308Z" stroke="black" stroke-width="2" stroke-linecap="round" stroke-linejoin="round"/>
<path d="M12.1941 46.6486V41.6191L8.88354 38.6493M19.7065 35.6983C16.0776 35.6983 14.7407 33.4063 14.7407 32.324C14.7407 31.9749 14.6233 31.6761 14.4597 31.4327M14.4597 31.4327C14.2174 31.0726 13.8737 30.8337 13.6584 30.7324C13.1703 30.7324 11.9776 30.7324 11.1118 30.7324C10.246 30.7324 9.64752 31.4964 9.45652 31.8784C8.92597 32.9607 7.78848 35.329 7.48289 36.1439C7.1773 36.9588 7.61022 37.5445 7.86488 37.7355L8.88354 38.6493M14.4597 31.4327L12.1941 36.8442M8.88354 38.6493L7.48289 42.574L5 45.1206" stroke="black" stroke-width="2" stroke-linecap="round" stroke-linejoin="round"/>
<path d="M16.0064 21.8828C16.653 22.4431 17.062 23.2704 17.062 24.1931C17.062 25.8809 15.6938 27.249 14.0061 27.249C12.3184 27.249 10.9502 25.8809 10.9502 24.1931C10.9502 23.2704 11.3592 22.4431 12.0058 21.8828" stroke="black" stroke-width="2" stroke-linecap="round" stroke-linejoin="round"/>
</svg>
