<svg width="52" height="52" viewBox="0 0 52 52" fill="none" xmlns="http://www.w3.org/2000/svg">
<g clip-path="url(#clip0_14067_11344)">
<path d="M19.502 27.631C19.502 26.9228 19.7887 26.2437 20.2992 25.743C20.8097 25.2422 21.502 24.9609 22.2239 24.9609H41.2778C41.9997 24.9609 42.6921 25.2422 43.2025 25.743C43.713 26.2437 43.9998 26.9228 43.9998 27.631V37.1814C43.9998 37.8896 43.713 38.5687 43.2025 39.0694C42.6921 39.5702 41.9997 39.8515 41.2778 39.8515H22.2239C21.502 39.8515 20.8097 39.5702 20.2992 39.0694C19.7887 38.5687 19.502 37.8896 19.502 37.1814V27.631Z" stroke="black" stroke-width="2" stroke-linecap="round" stroke-linejoin="round"/>
<path d="M26.4131 24.9623V24.1407C26.4131 23.4326 26.6999 22.7535 27.2103 22.2527C27.7208 21.752 28.4132 21.4707 29.1351 21.4707H34.579C35.3009 21.4707 35.9933 21.752 36.5038 22.2527C37.0142 22.7535 37.301 23.4326 37.301 24.1407V24.9623" stroke="black" stroke-width="2" stroke-linecap="round" stroke-linejoin="round"/>
<path d="M31.751 30.4043V30.4194" stroke="black" stroke-width="2" stroke-linecap="round" stroke-linejoin="round"/>
<path d="M19.502 31.7383C23.3013 33.6162 27.4964 34.5944 31.7509 34.5944C36.0053 34.5944 40.2005 33.6162 43.9998 31.7383" stroke="black" stroke-width="2" stroke-linecap="round" stroke-linejoin="round"/>
<path d="M30.4978 16.8912V16.1642C30.4978 15.456 30.211 14.7769 29.7006 14.2762C29.1901 13.7754 28.4978 13.4941 27.7758 13.4941H8.72198C8.00007 13.4941 7.30772 13.7754 6.79725 14.2762C6.28678 14.7769 6 15.456 6 16.1642V25.7147C6 26.4228 6.28678 27.1019 6.79725 27.6026C7.30772 28.1034 8.00007 28.3847 8.72198 28.3847H14.2831" stroke="black" stroke-width="2" stroke-linecap="round" stroke-linejoin="round"/>
<path d="M12.9102 13.4916V12.67C12.9102 11.9619 13.1969 11.2828 13.7074 10.782C14.2179 10.2813 14.9102 10 15.6321 10H21.0761C21.798 10 22.4904 10.2813 23.0008 10.782C23.5113 11.2828 23.7981 11.9619 23.7981 12.67V13.4916" stroke="black" stroke-width="2" stroke-linecap="round" stroke-linejoin="round"/>
<path d="M18.249 18.9336V18.9487" stroke="black" stroke-width="2" stroke-linecap="round" stroke-linejoin="round"/>
<path d="M6 20.2695C8.61762 21.5634 11.4231 22.4301 14.3065 22.8442" stroke="black" stroke-width="2" stroke-linecap="round" stroke-linejoin="round"/>
<path d="M36.7109 13.634H39.8824C40.6043 13.634 41.2966 13.9153 41.8071 14.416C42.3176 14.9167 42.6044 15.5958 42.6044 16.304V17.944M36.7109 13.634L38.2087 15.297M36.7109 13.634L38.2087 11.7676" stroke="black" stroke-width="2" stroke-linecap="round" stroke-linejoin="round"/>
<path d="M12.9971 38.1336H9.82562C9.10371 38.1336 8.41136 37.8523 7.90089 37.3516C7.39042 36.8509 7.10364 36.1717 7.10364 35.4636V33.8236M12.9971 38.1336L11.4993 36.4706M12.9971 38.1336L11.4993 40" stroke="black" stroke-width="2" stroke-linecap="round" stroke-linejoin="round"/>
</g>
<defs>
<clipPath id="clip0_14067_11344">
<rect width="52" height="52" fill="white"/>
</clipPath>
</defs>
</svg>
