<svg width="52" height="52" viewBox="0 0 52 52" fill="none" xmlns="http://www.w3.org/2000/svg">
<g clip-path="url(#clip0_14070_11418)">
<path d="M33.1 42.3333C33.1 43.571 32.5998 44.758 31.7094 45.6332C30.819 46.5083 29.6114 47 28.3522 47H14.7478C13.4886 47 12.281 46.5083 11.3906 45.6332C10.5002 44.758 10 43.571 10 42.3333V9.66667C10 8.42899 10.5002 7.242 11.3906 6.36683C12.281 5.49167 13.4886 5 14.7478 5H28.3522C29.6114 5 30.819 5.49167 31.7094 6.36683C32.5998 7.242 33.1 8.42899 33.1 9.66667V13.4" stroke="black" stroke-width="2" stroke-linecap="round" stroke-linejoin="round"/>
<path d="M18.3999 8.76953H23.8782" stroke="black" stroke-width="2" stroke-linecap="round" stroke-linejoin="round"/>
<path d="M21.5498 43.0527V43.0755" stroke="black" stroke-width="2" stroke-linecap="round" stroke-linejoin="round"/>
<path d="M23.6494 35.4506C23.6494 36.0772 23.8983 36.6782 24.3414 37.1213C24.7844 37.5644 25.3853 37.8133 26.0119 37.8133C26.6385 37.8133 27.2394 37.5644 27.6825 37.1213C28.1255 36.6782 28.3744 36.0772 28.3744 35.4506C28.3744 34.824 28.1255 34.223 27.6825 33.7799C27.2394 33.3368 26.6385 33.0879 26.0119 33.0879C25.3853 33.0879 24.7844 33.3368 24.3414 33.7799C23.8983 34.223 23.6494 34.824 23.6494 35.4506Z" stroke="black" stroke-width="2" stroke-linecap="round" stroke-linejoin="round"/>
<path d="M36.6431 35.4506C36.6431 36.0772 36.892 36.6782 37.335 37.1213C37.7781 37.5644 38.379 37.8133 39.0056 37.8133C39.6321 37.8133 40.2331 37.5644 40.6761 37.1213C41.1192 36.6782 41.3681 36.0772 41.3681 35.4506C41.3681 34.824 41.1192 34.223 40.6761 33.7799C40.2331 33.3368 39.6321 33.0879 39.0056 33.0879C38.379 33.0879 37.7781 33.3368 37.335 33.7799C36.892 34.223 36.6431 34.824 36.6431 35.4506Z" stroke="black" stroke-width="2" stroke-linecap="round" stroke-linejoin="round"/>
<path d="M39.0057 33.0898H26.0119V16.5508H23.6494" stroke="black" stroke-width="2" stroke-linecap="round" stroke-linejoin="round"/>
<path d="M26.0122 18.9121L42.5497 20.0935L41.3685 28.363H26.0122" stroke="black" stroke-width="2" stroke-linecap="round" stroke-linejoin="round"/>
</g>
<defs>
<clipPath id="clip0_14070_11418">
<rect width="52" height="52" fill="white"/>
</clipPath>
</defs>
</svg>
