<svg width="52" height="52" viewBox="0 0 52 52" fill="none" xmlns="http://www.w3.org/2000/svg">
<g clip-path="url(#clip0_14072_11432)">
<path d="M5 47H47" stroke="black" stroke-width="2" stroke-linecap="round" stroke-linejoin="round"/>
<path d="M7.51172 46.9983V15.7676L21.3322 25.1009V15.7676L31.922 25.1009H44.4861" stroke="black" stroke-width="2" stroke-linecap="round" stroke-linejoin="round"/>
<path d="M44.4865 47V25.1026L41.1358 5.994C41.0944 5.71738 40.955 5.46483 40.743 5.28238C40.531 5.09993 40.2605 4.99972 39.9808 5H37.3092C37.0326 4.99958 36.7649 5.09741 36.5538 5.27605C36.3426 5.45469 36.2018 5.70252 36.1565 5.97533L32.8198 23.8462" stroke="black" stroke-width="2" stroke-linecap="round" stroke-linejoin="round"/>
<path d="M18.9512 43.2343L34.4814 43.2267V39.9286C33.9816 39.9286 33.5022 39.7301 33.1488 39.3767C32.7954 39.0232 32.5968 38.5439 32.5968 38.044C32.5968 37.5442 32.7954 37.0648 33.1488 36.7114C33.5022 36.358 33.9816 36.1594 34.4814 36.1594V32.8613H18.7241" stroke="black" stroke-width="2" stroke-linecap="round" stroke-linejoin="round"/>
<path d="M34.4801 32.8564L25.6365 28.1523C23.2695 28.2654 21.153 29.4904 19.6746 31.3798C18.3337 33.0948 17.5186 35.3572 17.5186 37.8383C17.5186 39.8332 18.0462 41.6877 18.9499 43.2293" stroke="black" stroke-width="2" stroke-linecap="round" stroke-linejoin="round"/>
<path d="M28.8271 36.6309V36.6397" stroke="black" stroke-width="2" stroke-linecap="round" stroke-linejoin="round"/>
<path d="M22.2305 36.6309V36.6397" stroke="black" stroke-width="2" stroke-linecap="round" stroke-linejoin="round"/>
<path d="M25.0576 39.4551V39.464" stroke="black" stroke-width="2" stroke-linecap="round" stroke-linejoin="round"/>
</g>
<defs>
<clipPath id="clip0_14072_11432">
<rect width="52" height="52" fill="white"/>
</clipPath>
</defs>
</svg>
