<svg width="52" height="52" viewBox="0 0 52 52" fill="none" xmlns="http://www.w3.org/2000/svg">
<path d="M31.0686 12.3872C29.3101 10.3537 30.1267 6.4513 30.7548 4.75427C26.8821 3.05842 25.4168 4.75175 21.0207 4.75427C22.5279 8.82431 21.6488 11.5387 21.0208 12.3872C19.0015 12.3865 16.8219 12.387 15.0547 12.3872M31.0686 12.3872C26.7981 16.2064 22.5906 13.9755 21.0207 12.3827M31.0686 12.3872H36.7208M39.8607 21.6084C40.8763 20.0657 41.7447 19.3826 41.7447 16.5208C41.7447 13.4683 39.6513 12.4932 38.6047 12.3872H36.7208M39.8607 21.6084C38.6047 23.5162 35.4646 27.8406 35.4646 31.1475M39.8607 21.6084C36.3437 19.3225 36.302 14.5085 36.7208 12.3872M35.4646 31.1475H41.744C42.1627 31.146 43 31.3339 43 32.097C43 32.8601 43 34.9588 43 35.9127C43 36.3366 42.7488 37.1846 41.744 37.1846C40.7392 37.1846 37.6426 37.1846 35.7485 37.1846M35.4646 31.1475H25.8876H16.3105M40.4887 48C36.9718 43.1668 35.8833 39.2028 35.7786 37.8249L35.7485 37.1846M12.2287 46.7281C14.7407 42.2765 15.9965 40.3687 16.3105 37.8249V37.1846M16.3105 31.1475C16.3106 29.8756 15.4943 26.1871 12.2287 21.6084M16.3105 31.1475C15.1593 31.1475 12.5427 31.1475 11.2867 31.1475C10.0307 31.1475 9.92601 31.7805 10.0307 32.097C10.0307 33.1569 10.0307 34.8952 10.0307 35.9127C10.0307 36.9302 10.868 37.1846 11.2867 37.1846H16.3105M12.2287 21.6084C8.14664 15.8849 11.6007 12.3869 13.1707 12.3872C13.7085 12.3873 14.3487 12.3873 15.0547 12.3872M12.2287 21.6084C15.7455 18.5594 15.578 14.1905 15.0547 12.3872M35.7485 37.1846H32.0108M16.3105 37.1846H20.0787M20.0787 37.1846C19.7646 38.7774 18.5712 42.916 16.3105 46.7281M20.0787 37.1846H32.0108M32.0108 37.1846C32.3046 38.9879 33.4635 43.4212 35.7485 46.7281M39.5468 31.1431V32.733M35.4648 31.1431V32.733M31.3828 31.1431V32.733M26.9868 31.1431V32.733M22.9047 31.1431V32.733M18.5087 31.1431V32.733M14.4267 31.1431V32.733" stroke="black" stroke-width="2" stroke-linecap="round" stroke-linejoin="round"/>
</svg>
