<svg width="133" height="123" viewBox="0 0 133 123" fill="none" xmlns="http://www.w3.org/2000/svg">
<path d="M98.7521 45.7281C98.7516 44.5064 98.4869 43.4269 97.9517 42.5004C97.426 41.5893 96.6386 40.8257 95.5825 40.222C86.865 35.2596 78.139 30.3125 69.4242 25.3451C67.0748 24.0061 64.7968 24.0549 62.4648 25.4132C58.9949 27.4333 41.6226 37.2591 36.4459 40.2192C34.3139 41.4376 33.2765 43.3022 33.276 45.7258C33.2727 55.7053 33.276 65.6846 33.2727 75.6643C33.2727 76.8592 33.5266 77.9177 34.0383 78.8303C34.5643 79.769 35.3626 80.5536 36.4431 81.171C41.62 84.1311 58.9947 93.956 62.4638 95.9767C64.7968 97.3357 67.0748 97.3843 69.425 96.0448C78.14 91.0771 86.8665 86.1302 95.5853 81.1679C96.6658 80.5508 97.4641 79.7657 97.9901 78.8278C98.501 77.9152 98.7554 76.8567 98.7554 75.6616C98.7554 75.6616 98.7554 55.7078 98.7521 45.7281Z" fill="#953DAC"/>
<path d="M66.1114 60.5977L34.0354 78.8302C34.5614 79.7688 35.3598 80.5534 36.4402 81.1708C41.6172 84.1309 58.9918 93.9559 62.4609 95.9766C64.794 97.3356 67.0719 97.3841 69.4221 96.0446C78.1371 91.077 86.8637 86.1301 95.5825 81.1678C96.6629 80.5506 97.4613 79.7655 97.9873 78.8276L66.1114 60.5977Z" fill="#68217A"/>
<path d="M98.7519 45.7199C98.7514 44.4982 98.4867 43.4187 97.9515 42.4922L66.114 60.5896L97.9899 78.8196C98.5008 77.907 98.7547 76.8485 98.7552 75.6534C98.7552 75.6534 98.7552 55.6996 98.7519 45.7199Z" fill="#822C98"/>
<path d="M84.9938 53.7891V57.197H88.4459V53.7891H90.172V57.197H93.6241V58.901H90.172V62.3089H93.6241V64.0129H90.172V67.4209H88.4459V64.0129H84.9938V67.4209H83.2678V64.0129H79.8157V62.3089H83.2678V58.901H79.8157V57.197H83.2678V53.7891H84.9938ZM88.4459 58.901H84.9938V62.3089H88.4459V58.901Z" fill="white"/>
<path d="M66.1785 36.6602C75.1827 36.6602 83.0441 41.4877 87.2548 48.6634L87.2137 48.5943L76.6198 54.6163C74.5325 51.1274 70.7061 48.773 66.3168 48.7245L66.1785 48.7237C59.4849 48.7237 54.0582 54.0807 54.0582 60.6888C54.0582 62.8497 54.6418 64.8754 55.6567 66.625C57.7458 70.2256 61.6732 72.6541 66.1785 72.6541C70.7116 72.6541 74.6613 70.1947 76.7399 66.5556L76.6894 66.643L87.2674 72.6927C83.1029 79.8076 75.3492 84.6203 66.4496 84.7162L66.1785 84.7176C57.1459 84.7176 49.2622 79.8603 45.062 72.6467C43.0116 69.1251 41.8384 65.0424 41.8384 60.6888C41.8384 47.4183 52.7356 36.6602 66.1785 36.6602Z" fill="white"/>
</svg>
