<svg width="133" height="123" viewBox="0 0 133 123" fill="none" xmlns="http://www.w3.org/2000/svg">
<g clip-path="url(#clip0_3931_33576)">
<path d="M47.8514 82.135L36.1585 70.5058C34.7663 69.0873 33.907 67.0832 33.907 65.1333C33.907 64.2287 34.4196 62.8129 34.8071 62.0029L45.5999 39.6328L47.8514 82.135Z" fill="#01579B"/>
<path d="M87.8846 41.8686L76.1917 30.2393C75.1706 29.217 73.0441 28 71.244 28C69.6967 28 68.178 28.3097 67.1977 28.8952L45.6094 39.6292L87.8846 41.8686Z" fill="#40C4FF"/>
<path d="M61.7925 96.003H90.1328V83.9248L68.9904 77.2109L49.6482 83.9248L61.7925 96.003Z" fill="#40C4FF"/>
<path d="M45.5984 75.8728C45.5984 79.4616 46.0511 80.3419 47.8459 82.1364L49.6447 83.9267H90.1333L70.3438 61.558L45.5984 39.6328V75.8728Z" fill="#29B6F6"/>
<path d="M81.588 39.6328H45.5984L90.1333 83.92H102.278V56.1842L87.8831 41.8667C85.86 39.8519 84.0653 39.6328 81.588 39.6328Z" fill="#01579B"/>
<path opacity="0.2" d="M48.3028 82.5799C46.504 80.7855 46.0567 79.0154 46.0567 75.8728V40.0818L45.6094 39.6328V75.8728C45.6094 79.0167 45.6094 79.8876 48.3028 82.5812L49.6502 83.9213L48.3028 82.5799Z" fill="white"/>
<path opacity="0.2" d="M101.833 55.7305V83.4662H89.6882L90.1356 83.9165H102.28V56.1754L101.833 55.7305Z" fill="#263238"/>
<path opacity="0.2" d="M87.8846 41.8721C85.6561 39.6517 83.8315 39.6328 81.1421 39.6328H45.6094L46.0567 40.0777H81.1421C82.4841 40.0777 85.8723 39.8532 87.8873 41.8681L87.8846 41.8721Z" fill="white"/>
<path opacity="0.2" d="M101.832 57.0594L87.8846 43.1163L76.1917 31.4234C75.1706 30.3955 73.0442 29.1719 71.244 29.1719C69.6967 29.1719 68.178 29.4832 67.1977 30.072L45.6094 40.8648L34.8111 63.3572C34.425 64.1771 33.907 65.5993 33.907 66.5048C33.907 68.4695 34.7717 70.4749 36.1531 71.9026L46.9364 82.6056C47.2233 82.9536 47.5288 83.2858 47.8514 83.6009L48.2987 84.0482L49.6448 85.3956L61.3377 97.0885L61.785 97.5358H90.1198V85.3942H102.264V57.5067L101.832 57.0594Z" fill="url(#paint0_radial_3931_33576)"/>
</g>
<defs>
<radialGradient id="paint0_radial_3931_33576" cx="0" cy="0" r="1" gradientUnits="userSpaceOnUse" gradientTransform="translate(68.091 63.3545) scale(34.1813 34.1813)">
<stop stop-color="white" stop-opacity="0.1"/>
<stop offset="1" stop-color="white" stop-opacity="0"/>
</radialGradient>
<clipPath id="clip0_3931_33576">
<rect width="120" height="68" fill="white" transform="translate(6 28)"/>
</clipPath>
</defs>
</svg>
