<svg id="Layer_1" data-name="Layer 1" xmlns="http://www.w3.org/2000/svg" viewBox="0 0 100 100"><defs><style>.cls-1{fill:#403181;}</style></defs><title>cms-sites</title><path class="cls-1" d="M47.06,71.29a2,2,0,0,0-1.38.57,1.93,1.93,0,0,0,0,2.76,2,2,0,0,0,1.38.57,1.95,1.95,0,0,0,1.95-2,2,2,0,0,0-.57-1.38A2,2,0,0,0,47.06,71.29Z"/><path class="cls-1" d="M84.33,65.45a2,2,0,0,0-2,2,1.95,1.95,0,0,0,2,2A2,2,0,0,0,85.71,66,2,2,0,0,0,84.33,65.45Z"/><path class="cls-1" d="M26.55,56.05a2,2,0,0,0-1.95,2,2,2,0,1,0,3.33-1.38A2,2,0,0,0,26.55,56.05Z"/><path class="cls-1" d="M100,21.2a2,2,0,0,0-2-1.95H95a20.79,20.79,0,0,0-1.64-4l2.13-2.13a2,2,0,0,0,0-2.76L89.6,4.47a2,2,0,0,0-2.76,0L84.71,6.6a20.79,20.79,0,0,0-4-1.64V2A2,2,0,0,0,78.8,0H70.42a2,2,0,0,0-2,2V5a20.61,20.61,0,0,0-3.94,1.64L62.38,4.47a2,2,0,0,0-2.76,0L53.69,10.4a2,2,0,0,0-.54,1.71H7.82A7.83,7.83,0,0,0,0,19.93V73.82a7.83,7.83,0,0,0,7.82,7.82h31v6.64H34.17a7.05,7.05,0,0,0-7,7v2.73a2,2,0,0,0,2,2H65a2,2,0,0,0,2-2V95.32a7.05,7.05,0,0,0-7-7H55.26V81.64h31a7.82,7.82,0,0,0,7.81-7.82v-32l1.44-1.43a2,2,0,0,0,0-2.76l-2.14-2.14A21.16,21.16,0,0,0,95,31.54h3a2,2,0,0,0,2-2ZM63.07,95.32v.77H31v-.77a3.13,3.13,0,0,1,3.13-3.13H59.94A3.13,3.13,0,0,1,63.07,95.32Zm-11.72-7H42.76V81.64h8.59ZM90.19,73.82a3.92,3.92,0,0,1-3.91,3.91H7.82a3.91,3.91,0,0,1-3.91-3.91V69.36H76.52a2,2,0,0,0,0-3.91H3.91V60H18.82a2,2,0,0,0,0-3.91H3.91V19.93A3.91,3.91,0,0,1,7.82,16H55.47a21.45,21.45,0,0,0-1.27,3.23h-3a1.95,1.95,0,0,0-2,1.95v8.38a2,2,0,0,0,2,2h3a21.72,21.72,0,0,0,1.63,3.93l-2.15,2.15a2,2,0,0,0,0,2.76l5.93,5.93a2,2,0,0,0,2.76,0l2.15-2.15a21.72,21.72,0,0,0,3.93,1.63v3a2,2,0,0,0,2,2H78.8a2,2,0,0,0,2-2v-3a21.23,21.23,0,0,0,3.94-1.63l2.15,2.14a2,2,0,0,0,2.76,0l.59-.59v28.1Zm5.9-46.19H93.52a2,2,0,0,0-1.9,1.53,17.11,17.11,0,0,1-2.32,5.58,2,2,0,0,0,.26,2.44L91.38,39l-3.16,3.17-1.83-1.83A2,2,0,0,0,84.14,40l-.18.1a17.18,17.18,0,0,1-5.58,2.31,2,2,0,0,0-1.53,1.91v2.59H72.37v-2.6a2,2,0,0,0-1.53-1.91,16.92,16.92,0,0,1-5.57-2.31,1.94,1.94,0,0,0-1-.3,1.92,1.92,0,0,0-1.38.57L61,42.17,57.83,39l1.84-1.84a1.94,1.94,0,0,0,.26-2.43,17.2,17.2,0,0,1-2.3-5.57,2,2,0,0,0-1.91-1.53h-2.6V23.15h2.58a2,2,0,0,0,1.91-1.53A17.48,17.48,0,0,1,59.92,16a1.94,1.94,0,0,0-.26-2.43l-1.83-1.83L61,8.62l1.82,1.82a2,2,0,0,0,2.47.24,17.13,17.13,0,0,1,5.55-2.3,2,2,0,0,0,1.53-1.9V3.91h4.48V6.47a2,2,0,0,0,1.53,1.91A17.46,17.46,0,0,1,84,10.69l.18.1a2,2,0,0,0,2.26-.36l1.81-1.81,3.16,3.16-1.81,1.81a1.76,1.76,0,0,0-.24.3,2,2,0,0,0,0,2.14,17.24,17.24,0,0,1,2.31,5.59,2,2,0,0,0,1.91,1.53h2.56v4.48Z"/><path class="cls-1" d="M74.61,13.28A12.11,12.11,0,1,0,86.72,25.39,12.12,12.12,0,0,0,74.61,13.28Zm0,20.31a8.2,8.2,0,1,1,8.2-8.2A8.21,8.21,0,0,1,74.61,33.59Z"/><path class="cls-1" d="M32,36.57a2,2,0,0,0-2,2,2,2,0,0,0,2,1.95,1.95,1.95,0,0,0,2-1.95,1.95,1.95,0,0,0-2-2Z"/><path class="cls-1" d="M47.21,35.12A2,2,0,0,0,47,33.64l-3.3-5.71a2,2,0,0,0-2.67-.72L39.17,28.3a11.9,11.9,0,0,0-2-1.13V25a2,2,0,0,0-2-1.95H28.67a2,2,0,0,0-2,1.95v2.17a11.59,11.59,0,0,0-2,1.13l-1.88-1.09A1.92,1.92,0,0,0,21.4,27a2,2,0,0,0-1.19.91l-3.29,5.71a2,2,0,0,0,.71,2.67l1.88,1.08c0,.38-.05.75-.05,1.13s0,.75.05,1.13l-1.88,1.08a2,2,0,0,0-.71,2.67l3.29,5.71A2,2,0,0,0,21.4,50a1.92,1.92,0,0,0,1.48-.19l1.88-1.09a11.59,11.59,0,0,0,2,1.13V52a2,2,0,0,0,2,2h6.59a2,2,0,0,0,2-2V49.87a11.9,11.9,0,0,0,2-1.13l1.88,1.09a2,2,0,0,0,2.67-.72L47,43.4a2,2,0,0,0,.19-1.48,2,2,0,0,0-.91-1.19l-1.88-1.08c0-.38,0-.75,0-1.13s0-.75,0-1.13l1.88-1.08A2,2,0,0,0,47.21,35.12Zm-6.82,1.64a8.69,8.69,0,0,1,0,3.52,1.93,1.93,0,0,0,.93,2.09l1.34.77-1.35,2.33L40,44.7a1.94,1.94,0,0,0-2.27.23,8.49,8.49,0,0,1-3.05,1.76,2,2,0,0,0-1.34,1.86v1.54H30.62V48.55a2,2,0,0,0-1.34-1.86,8.45,8.45,0,0,1-3-1.76A2,2,0,0,0,24,44.7l-1.34.77-1.34-2.33,1.33-.77a2,2,0,0,0,.94-2.09,8.69,8.69,0,0,1,0-3.52,2,2,0,0,0-.94-2.09l-1.33-.77,1.34-2.33,1.34.77a2,2,0,0,0,2.28-.23,8.45,8.45,0,0,1,3-1.76,2,2,0,0,0,1.34-1.86V27h2.69v1.54a2,2,0,0,0,1.34,1.86,8.49,8.49,0,0,1,3.05,1.76,1.93,1.93,0,0,0,2.27.23l1.34-.77,1.35,2.33-1.34.77A1.94,1.94,0,0,0,40.39,36.76Z"/></svg>