<svg id="Layer_1" data-name="Layer 1" xmlns="http://www.w3.org/2000/svg" viewBox="0 0 100 100"><defs><style>.cls-1{fill:#403181;}</style></defs><title>stock-images-and-videos</title><path class="cls-1" d="M72.72,95.83a8.24,8.24,0,0,1-2.13-.27L6.16,78.3A8.4,8.4,0,0,1,.27,68.1L8.4,37.8a2.08,2.08,0,0,1,4,1.07L4.3,69.16a4.23,4.23,0,0,0,3,5.12l64.4,17.25a4.14,4.14,0,0,0,5.07-2.93L80,76.54a2.08,2.08,0,1,1,4,1.08l-3.25,12a8.31,8.31,0,0,1-8,6.17Z"/><path class="cls-1" d="M91.66,70.83H25a8.34,8.34,0,0,1-8.34-8.33v-50A8.34,8.34,0,0,1,25,4.17H91.66A8.34,8.34,0,0,1,100,12.5v50A8.34,8.34,0,0,1,91.66,70.83ZM25,8.33a4.17,4.17,0,0,0-4.17,4.17v50A4.17,4.17,0,0,0,25,66.67H91.66a4.17,4.17,0,0,0,4.17-4.17v-50a4.17,4.17,0,0,0-4.17-4.17Z"/><path class="cls-1" d="M37.5,33.33A8.33,8.33,0,1,1,45.83,25,8.34,8.34,0,0,1,37.5,33.33Zm0-12.5A4.17,4.17,0,1,0,41.66,25,4.17,4.17,0,0,0,37.5,20.83Z"/><path class="cls-1" d="M19,66.37a2.12,2.12,0,0,1-1.48-.6,2.09,2.09,0,0,1,0-2.95L37.24,43.14a6.4,6.4,0,0,1,8.84,0L51.94,49,68.16,29.54a6.26,6.26,0,0,1,4.75-2.25h0a6.27,6.27,0,0,1,4.75,2.18L99.5,54.9a2.09,2.09,0,0,1-3.17,2.71L74.54,32.18A2.07,2.07,0,0,0,73,31.46a2.19,2.19,0,0,0-1.6.75L53.68,53.42a2.09,2.09,0,0,1-1.51.75,2,2,0,0,1-1.56-.61l-7.47-7.47a2.13,2.13,0,0,0-3,0L20.51,65.77a2.08,2.08,0,0,1-1.47.6Z"/></svg>