<svg id="Layer_1" data-name="Layer 1" xmlns="http://www.w3.org/2000/svg" viewBox="0 0 100 100"><defs><style>.cls-1{fill:#403181;}</style></defs><title>stationary-design</title><g id="Out_line" data-name="Out line"><path class="cls-1" d="M98.33,63.33H96.67V1.67A1.67,1.67,0,0,0,95,0H38.33a1.66,1.66,0,0,0-1.66,1.67V13.33H30A1.67,1.67,0,0,0,28.33,15V33.33h-20A1.66,1.66,0,0,0,6.67,35v8.33A1.67,1.67,0,0,0,5,45v8.33H1.67A1.67,1.67,0,0,0,0,55V68.33H3.33V56.67H5V90a1.66,1.66,0,0,0,.28.92l3.33,5a1.66,1.66,0,0,0,2.31.47,1.75,1.75,0,0,0,.47-.47l3.33-5A1.66,1.66,0,0,0,15,90V80H28.33V91.67A1.66,1.66,0,0,0,30,93.33H46.67v5A1.66,1.66,0,0,0,48.33,100h50A1.67,1.67,0,0,0,100,98.33V65A1.67,1.67,0,0,0,98.33,63.33ZM95,66.67l-15,20a8.34,8.34,0,0,1-11.67,1.66,8.16,8.16,0,0,1-1.66-1.66l-15-20ZM40,3.33H93.33v60h-5V15a1.66,1.66,0,0,0-1.66-1.67H40ZM10,36.67H35v15H15V45a1.67,1.67,0,0,0-1.67-1.67H10Zm5,21.66V55H28.33v3.33ZM8.33,46.67h3.34v6.66H8.33ZM10,92,8.33,89.5V56.67h3.34V89.5Zm5-30.33H35v15H15ZM31.67,90V80h5a1.66,1.66,0,0,0,1.66-1.67V60a1.66,1.66,0,0,0-1.66-1.67h-5V55h5a1.66,1.66,0,0,0,1.66-1.67V35a1.66,1.66,0,0,0-1.66-1.67h-5V16.67H85V63.33H48.33A1.66,1.66,0,0,0,46.67,65V90ZM50,96.67V70L64,88.67a11.69,11.69,0,0,0,18.67,0L96.67,70V96.67Z"/><path class="cls-1" d="M58.33,61.67A16.56,16.56,0,0,0,73,52.84l.16-.08,2.55-1.27A1.67,1.67,0,0,0,76.67,50V40a1.67,1.67,0,0,0-2.42-1.49l-.47.24a16.67,16.67,0,0,0-30.16-1.59l-.15.08-2.55,1.27A1.67,1.67,0,0,0,40,40V50a1.67,1.67,0,0,0,1.67,1.67,1.59,1.59,0,0,0,.74-.18l.47-.24A16.72,16.72,0,0,0,58.33,61.67Zm0-3.34A13.34,13.34,0,0,1,45.89,49.8a11.73,11.73,0,0,1,11.44,1.53,15.11,15.11,0,0,0,9.08,3.05,14.87,14.87,0,0,0,1.49-.08A13.22,13.22,0,0,1,58.33,58.33Zm0-26.66A13.34,13.34,0,0,1,70.77,40.2a11.73,11.73,0,0,1-11.44-1.53,15,15,0,0,0-10.57-3A13.24,13.24,0,0,1,58.33,31.67ZM43.33,41,45,40.22a11.74,11.74,0,0,1,12.37,1.11A15.05,15.05,0,0,0,73.2,42.76l.13-.06V49l-1.62.81a11.76,11.76,0,0,1-12.38-1.11,15,15,0,0,0-15.86-1.43l-.14.06Z"/></g></svg>