<svg id="Layer_1" data-name="Layer 1" xmlns="http://www.w3.org/2000/svg" viewBox="0 0 100 100"><defs><style>.cls-1{fill:#403181;}</style></defs><title>informative-website</title><g id="patient_information-information-record-computer-data" data-name="patient information-information-record-computer-data"><path class="cls-1" d="M91.67,0H8.33A8.33,8.33,0,0,0,0,8.33V71.67A8.33,8.33,0,0,0,8.33,80H40V90H30a5,5,0,0,0-5,5v3.33A1.67,1.67,0,0,0,26.67,100H73.33A1.67,1.67,0,0,0,75,98.33V95a5,5,0,0,0-5-5H60V80H91.67A8.33,8.33,0,0,0,100,71.67V8.33A8.33,8.33,0,0,0,91.67,0ZM70,93.33A1.67,1.67,0,0,1,71.67,95v1.67H28.33V95A1.67,1.67,0,0,1,30,93.33ZM43.33,90V80H56.67V90ZM96.67,71.67a5,5,0,0,1-5,5H8.33a5,5,0,0,1-5-5v-5H96.67Zm0-8.34H3.33v-55a5,5,0,0,1,5-5H91.67a5,5,0,0,1,5,5Z"/><path class="cls-1" d="M86.67,70H90v3.33H86.67Z"/><path class="cls-1" d="M80,70h3.33v3.33H80Z"/><path class="cls-1" d="M51.67,10h-40A1.67,1.67,0,0,0,10,11.67V55a1.67,1.67,0,0,0,1.67,1.67h40A1.66,1.66,0,0,0,53.33,55V11.67A1.66,1.66,0,0,0,51.67,10ZM43.33,53.33H20v-5A8.33,8.33,0,0,1,28.33,40H35a8.33,8.33,0,0,1,8.33,8.33ZM34.85,26.7l3.48,1.17v3.8a5,5,0,0,1-5,5H30a5,5,0,0,1-5-5V28.12Zm-9.82-2A5,5,0,0,1,30,20h3.33a5,5,0,0,1,4.94,4.33l-2.74-.91a1.64,1.64,0,0,0-.76-.07Zm25,28.6H46.67v-5a11.71,11.71,0,0,0-7.39-10.85,8.28,8.28,0,0,0,2.39-5.81V25a8.33,8.33,0,0,0-8.34-8.33H30A8.33,8.33,0,0,0,21.67,25v6.67a8.27,8.27,0,0,0,2.38,5.81,11.71,11.71,0,0,0-7.38,10.85v5H13.33v-40H50Z"/><path class="cls-1" d="M58.33,56.67h30A1.67,1.67,0,0,0,90,55V48.33a1.66,1.66,0,0,0-1.67-1.66h-30a1.66,1.66,0,0,0-1.66,1.66V55A1.66,1.66,0,0,0,58.33,56.67ZM60,50H86.67v3.33H60Z"/><path class="cls-1" d="M56.67,10h6.66v3.33H56.67Z"/><path class="cls-1" d="M66.67,10H90v3.33H66.67Z"/><path class="cls-1" d="M56.67,20h6.66v3.33H56.67Z"/><path class="cls-1" d="M66.67,20H90v3.33H66.67Z"/><path class="cls-1" d="M56.67,30h6.66v3.33H56.67Z"/><path class="cls-1" d="M66.67,30H90v3.33H66.67Z"/><path class="cls-1" d="M56.67,40h6.66v3.33H56.67Z"/><path class="cls-1" d="M66.67,40H90v3.33H66.67Z"/></g></svg>