<svg id="Layer_1" data-name="Layer 1" xmlns="http://www.w3.org/2000/svg" viewBox="0 0 150 150"><defs><style>.cls-1{fill:#403181;}</style></defs><title>social-media-marketing-icon</title><path class="cls-1" d="M87.21,130H82.33V106a2.45,2.45,0,0,0-4.89,0V130H13.93V81.11H34.26a2.45,2.45,0,0,0,0-4.89H11.49a2.44,2.44,0,0,0-2.44,2.44V130H4.16a2.44,2.44,0,0,0-2.44,2.44v4.89A12.21,12.21,0,0,0,13.93,149.5H77.44a12.22,12.22,0,0,0,12.22-12.21V132.4A2.45,2.45,0,0,0,87.21,130Zm-2.44,7.33a7.33,7.33,0,0,1-7.33,7.32H72.56v-2.44a2.45,2.45,0,0,0-4.89,0v2.44h-44v-2.44a2.44,2.44,0,1,0-4.88,0v2.44H13.93a7.32,7.32,0,0,1-7.32-7.32v-2.45H84.77Z"/><path class="cls-1" d="M128.74,17.6h4.88a2.45,2.45,0,1,0,0-4.89h-4.88A7.33,7.33,0,0,0,121.41,20v2.44H119a2.45,2.45,0,1,0,0,4.89h2.44V34.7a2.45,2.45,0,0,0,4.89,0V27.37h2.44a2.45,2.45,0,0,0,0-4.89H126.3V20A2.44,2.44,0,0,1,128.74,17.6Z"/><path class="cls-1" d="M141,2.94H111.64a7.33,7.33,0,0,0-7.33,7.33v4.89a2.45,2.45,0,0,0,4.89,0V10.27a2.44,2.44,0,0,1,2.44-2.44H141a2.44,2.44,0,0,1,2.44,2.44V39.58A2.44,2.44,0,0,1,141,42H111.64a2.44,2.44,0,0,1-2.44-2.44V24.93a2.45,2.45,0,1,0-4.89,0V39.58a7.33,7.33,0,0,0,7.33,7.33H141a7.33,7.33,0,0,0,7.33-7.33V10.27A7.33,7.33,0,0,0,141,2.94Z"/><path class="cls-1" d="M116.52,100.65a9.78,9.78,0,1,0,9.78-9.77A9.78,9.78,0,0,0,116.52,100.65Zm14.66,0a4.89,4.89,0,1,1-4.88-4.89A4.88,4.88,0,0,1,131.18,100.65Z"/><path class="cls-1" d="M141,78.66H111.64A7.33,7.33,0,0,0,104.31,86V115.3a7.33,7.33,0,0,0,7.33,7.33H141a7.33,7.33,0,0,0,7.33-7.33v-4.88a2.45,2.45,0,0,0-4.89,0v4.88a2.45,2.45,0,0,1-2.44,2.45H111.64a2.45,2.45,0,0,1-2.44-2.45V86a2.44,2.44,0,0,1,2.44-2.44H141A2.44,2.44,0,0,1,143.39,86v14.66a2.45,2.45,0,0,0,4.89,0V86A7.33,7.33,0,0,0,141,78.66Z"/><path class="cls-1" d="M56.61,31.89a2.35,2.35,0,0,0,1.29.36A2.47,2.47,0,0,0,59,32l14.66-7.33a2.44,2.44,0,0,0,0-4.35L59,13a2.44,2.44,0,0,0-3.28,1.08,2.47,2.47,0,0,0-.26,1.1V29.81A2.44,2.44,0,0,0,56.61,31.89Zm3.73-12.78,6.75,3.37-6.75,3.37Z"/><path class="cls-1" d="M62.79,44.47a22,22,0,1,0-22-22A22,22,0,0,0,62.79,44.47Zm0-39.08a17.1,17.1,0,1,1-17.1,17.09A17.1,17.1,0,0,1,62.79,5.39Z"/><path class="cls-1" d="M87.21,54.24a2.44,2.44,0,0,0,2-1l7.33-9.77a2.44,2.44,0,0,0-3.91-2.93l-7.33,9.77a2.44,2.44,0,0,0,.49,3.42A2.4,2.4,0,0,0,87.21,54.24Z"/><path class="cls-1" d="M92.59,63a2.42,2.42,0,0,0,2,1A2.45,2.45,0,0,0,96,63.52l9.77-7.33a2.44,2.44,0,0,0-2.93-3.91l-9.77,7.33A2.44,2.44,0,0,0,92.59,63Z"/><path class="cls-1" d="M116.52,68.4a2.43,2.43,0,0,0-2.83-2l-.1,0-12.21,2.44a2.46,2.46,0,0,0,.49,4.89h.49l12.21-2.44a2.44,2.44,0,0,0,2-2.84A.44.44,0,0,0,116.52,68.4Z"/><path class="cls-1" d="M4.16,68.89H33.48a2.44,2.44,0,0,0,2.44-2.44V27.37a2.44,2.44,0,0,0-2.44-2.44H4.16a2.44,2.44,0,0,0-2.44,2.44V66.45A2.44,2.44,0,0,0,4.16,68.89ZM6.61,29.81H31V64H6.61Z"/><path class="cls-1" d="M23.7,34.7H18.82a2.44,2.44,0,0,0,0,4.88H23.7a2.44,2.44,0,1,0,0-4.88Z"/><path class="cls-1" d="M23.7,44.47H13.93a2.44,2.44,0,1,0,0,4.88H23.7a2.44,2.44,0,1,0,0-4.88Z"/><path class="cls-1" d="M23.7,54.24H13.93a2.44,2.44,0,0,0,0,4.88H23.7a2.44,2.44,0,1,0,0-4.88Z"/><path class="cls-1" d="M85.06,68.16a2.45,2.45,0,0,0-4.25,2.44L91.59,89.24,52.5,103.9h-.36l-6.35,3.66L41.56,110a4.88,4.88,0,0,1-6.67-1.78L30,99.77a4.88,4.88,0,0,1,1.83-6.45l8.45-4.89L46.4,99a2.45,2.45,0,0,0,4.25-2.44l-6.3-10.9L75,60.39l1,1.74a2.45,2.45,0,1,0,4.25-2.45l-2.44-4.22a2.48,2.48,0,0,0-3.69-.66L39.92,83l-10.4,6A9.77,9.77,0,0,0,25,100.06l-2.44,1.39a7.33,7.33,0,0,0,1.76,13.44,7.63,7.63,0,0,0,1.91.24,7.47,7.47,0,0,0,3.66-1l2.44-1.4a9.43,9.43,0,0,0,4.28,2.54,9.2,9.2,0,0,0,2.56.35,9.77,9.77,0,0,0,4.89-1.32l2.12-1.23,4.89,8.48a7.32,7.32,0,1,0,12.68-7.32h0l-4.44-7.74L96,92.76a2.46,2.46,0,0,0,1.27-3.5ZM27.37,109.91a2.44,2.44,0,0,1-3.59-2.74,2.43,2.43,0,0,1,1.15-1.49l2.12-1.22,2.44,4.22Zm32.14,6.83a2.43,2.43,0,0,1,.25,1.86,2.49,2.49,0,0,1-1.15,1.47,2.45,2.45,0,0,1-3.32-.88l-4.89-8.48,4.06-2.32h.19Z"/></svg>