<svg id="Layer_1" data-name="Layer 1" xmlns="http://www.w3.org/2000/svg" viewBox="0 0 100 100"><defs><style>.cls-1{fill:#403181;}</style></defs><title>ecommerce-website</title><path class="cls-1" d="M99,26.26a4.46,4.46,0,0,0-3.54-1.72c-3.35,0-23.18-.1-42.36-.18l-30.72-.12L18.51,9.81A5.77,5.77,0,0,0,13,5.57H1.47a1.47,1.47,0,0,0,0,2.94H13a2.8,2.8,0,0,1,2.7,2.07l14.26,52.9L28,63.56a7.9,7.9,0,0,0-7.61,8,7.94,7.94,0,0,0,7.9,7.75h6.85l-1,2.21a8.72,8.72,0,0,0-.87,3.86,9,9,0,0,0,18.06,0,8.9,8.9,0,0,0-.88-3.86l-1-2.21h24l-1,2.21a8.87,8.87,0,0,0-.88,3.86,9,9,0,0,0,18.07,0,8.84,8.84,0,0,0-.94-4l-.79-1.58,1.68-.57a1.47,1.47,0,0,0-.47-2.87H28.18a4.93,4.93,0,0,1,0-9.86c8.37,0,26,0,40.1,0H86.7a6,6,0,0,0,5.85-4.64l7.33-31.77A4.48,4.48,0,0,0,99,26.26ZM80.31,79.33h.18a6.07,6.07,0,1,1-.18,0Zm-38.1,0a6.08,6.08,0,1,1-6.08,6.07A6.09,6.09,0,0,1,42.21,79.33Zm-19-52.13,17,.06L42.41,44H27.72ZM35.42,63.57a3.17,3.17,0,0,1-3.06-2.34L28.52,47h14.3L45,63.57Zm24.42,0H48L45.78,47H59.84Zm0-19.54H45.39L43.17,27.27l16.67.07ZM74.63,63.57H62.79V47h14ZM62.79,44V27.35l16.6.06L77.21,44ZM89.67,61.21a3,3,0,0,1-3,2.36H77.6L79.8,47H93ZM97,29.45,93.64,44H80.19l2.18-16.6,13.81.05,1,1.18Z"/></svg>