<svg id="Layer_1" data-name="Layer 1" xmlns="http://www.w3.org/2000/svg" viewBox="0 0 100 100"><defs><style>.cls-1{fill:#403181;}</style></defs><title>custom-graphic-designs</title><g id="Page-1"><path id="Shape" class="cls-1" d="M86.31,73.33a22.3,22.3,0,0,0,0-8.5l7.64-18.42v0a31.12,31.12,0,0,1,5.36-9.31,2.48,2.48,0,0,0,.61-2.27L96.75,21.28a1.42,1.42,0,0,0-.17-.4s0-.06,0-.08l-.1-.12a1.61,1.61,0,0,0-.24-.28L96,20.29a2.26,2.26,0,0,0-.26-.16,1.59,1.59,0,0,0-.39-.09s-.07,0-.11,0a1.64,1.64,0,0,0-.92.21l-.08,0h0L82.49,27.59a2.52,2.52,0,0,0-1.18,2.05A31,31,0,0,1,78.51,40v0L74.7,49.27a22.61,22.61,0,0,0-6-2.15,89.83,89.83,0,0,0,.87-16.39,18.17,18.17,0,0,0,4.13-13.35C72.7,7.67,63.92.65,63.55.36A1.66,1.66,0,0,0,60.91,2.1c.85,3.22.11,6.62-6.23,13.62A9.73,9.73,0,0,0,52.4,26.34a12.91,12.91,0,0,0,2.37,3.84c-.4,2.57-.72,5-.94,7.39a83.23,83.23,0,0,0-.29,11.82,22,22,0,0,0-4.15,2.89L41.31,17.71s0-.06-.05-.09a1.21,1.21,0,0,0-.11-.32L32.89,2.05a3.85,3.85,0,0,0-7.23,1.69L25,21.07a1.57,1.57,0,0,0,0,.37v.07l8.24,35.2a19.24,19.24,0,0,0-3.85.57L20.4,35.38a3.37,3.37,0,0,0-4.35-1.79L2.18,39.33a3.35,3.35,0,0,0-1.8,4.36l12.3,29.68A13.32,13.32,0,0,0,13.37,100H86.7a13.34,13.34,0,1,0-.39-26.67ZM84.62,30.19l7-4.36-2.47,6a1.67,1.67,0,1,0,3.08,1.27l2.47-6,1.85,8a33.32,33.32,0,0,0-4.83,8,6.84,6.84,0,0,1-5.5.12,6.91,6.91,0,0,1-3.82-4A32.94,32.94,0,0,0,84.62,30.19ZM80.78,43.28a10.08,10.08,0,0,0,4.16,3,10.4,10.4,0,0,0,4.08.86,8.68,8.68,0,0,0,1-.06L84.71,59.94a22.63,22.63,0,0,0-7.16-8.85ZM58,31.38l8.37.51c.05,1.55,0,3.16,0,4.8a35.38,35.38,0,0,1-8.35-.4l-.62-.09c.17-1.57.37-3.16.62-4.82ZM57.15,18c4.43-4.88,6.72-8.63,7.26-12.16a22.24,22.24,0,0,1,6,11.94,15,15,0,0,1-3.37,10.86L57.28,28a7,7,0,0,1-.13-10ZM57,39.53l.48.06a47.1,47.1,0,0,0,6.49.55c.69,0,1.42,0,2.14-.11-.15,2.14-.4,4.38-.71,6.7-.41,0-.82-.06-1.23-.06a22.17,22.17,0,0,0-7.39,1.27c-.07-2.81,0-5.62.21-8.41ZM44.14,59,39.37,38.7a1.67,1.67,0,0,0-3.25.76l4.29,18.29a18.3,18.3,0,0,0-3.64-.91L29.46,25.62a7.81,7.81,0,0,0,3.26.71l.33,0,1.17,5a1.7,1.7,0,0,0,1.14,1.24A1.68,1.68,0,0,0,37,32.2a1.64,1.64,0,0,0,.47-1.61l-1.18-5a7.83,7.83,0,0,0,2.91-2.22l7.44,31.8A21.83,21.83,0,0,0,44.14,59ZM34,22.85a5.53,5.53,0,0,1-5.56-2.23l.21-5.87a10.39,10.39,0,0,0,1.76.17,7.36,7.36,0,0,0,1.69-.19,8.55,8.55,0,0,0,3.09-1.54L38,18.37a5.54,5.54,0,0,1-4,4.48ZM29.39,3.38a.52.52,0,0,1,.57.26l3.57,6.6a5.55,5.55,0,0,1-2.25,1.25,5.54,5.54,0,0,1-2.56-.12L29,3.86A.51.51,0,0,1,29.39,3.38ZM17.33,36.67l1.27,3.07L12.43,42.3a1.66,1.66,0,0,0,.64,3.2,1.56,1.56,0,0,0,.64-.13l6.17-2.55,1.27,3.08-3.08,1.28a1.66,1.66,0,0,0,.64,3.2,1.77,1.77,0,0,0,.64-.12L22.43,49l1.28,3.08-6.18,2.56a1.66,1.66,0,0,0,.64,3.2,1.73,1.73,0,0,0,.64-.12L25,55.14l1.35,3.26a19.33,19.33,0,0,0-10.8,13.13L3.45,42.41Zm69.37,60H13.37a10,10,0,0,1,0-20,9.54,9.54,0,0,1,2.85.41,1.65,1.65,0,0,0,1.46-.25,1.67,1.67,0,0,0,.69-1.31A15.83,15.83,0,0,1,43.7,63.17a1.67,1.67,0,0,0,2.56-.75A19.17,19.17,0,0,1,82.53,74.79a1.66,1.66,0,0,0,2,2.12,10.34,10.34,0,0,1,2.22-.24,10,10,0,0,1,0,20Z"/><path class="cls-1" d="M64.51,26.17a1.65,1.65,0,0,0,1.33-.66,12.5,12.5,0,0,0,2.22-9.81,1.67,1.67,0,1,0-3.22.85,9.29,9.29,0,0,1-1.65,7,1.66,1.66,0,0,0,1.33,2.66Z"/><path class="cls-1" d="M62.32,76.67a8.24,8.24,0,0,0-3.58.83,10,10,0,0,0-17.27,9.82,1.66,1.66,0,0,0,1.53,1,1.57,1.57,0,0,0,.65-.13,1.71,1.71,0,0,0,.9-.91,1.67,1.67,0,0,0,0-1.28A6.87,6.87,0,0,1,44,83.33a6.67,6.67,0,0,1,6.67-6.66,6.59,6.59,0,0,1,6,3.83l.11.16.09.16a.48.48,0,0,0,.11.09,1.38,1.38,0,0,0,.26.22l.26.17a1.71,1.71,0,0,0,.3.09,1.64,1.64,0,0,0,.32,0,1.94,1.94,0,0,0,.63-.11l.13,0a1,1,0,0,0,.16-.12.56.56,0,0,0,.17-.09,5,5,0,0,1,7.63,1.82,1.66,1.66,0,0,0,3-1.38A8.31,8.31,0,0,0,62.32,76.67Z"/><path class="cls-1" d="M29.51,65.09c-.25.08-6.14,2.11-6.14,8.24a1.67,1.67,0,1,0,3.33,0,5.73,5.73,0,0,1,3.87-5.08,1.67,1.67,0,0,0-1.06-3.17Z"/><path class="cls-1" d="M53,63.28a1.4,1.4,0,0,0,.41,0A1.66,1.66,0,0,0,55,62.07a7.11,7.11,0,0,1,6.73-5.4,1.67,1.67,0,0,0,0-3.34,10.39,10.39,0,0,0-10,7.93A1.67,1.67,0,0,0,53,63.28Z"/></g></svg>