<svg id="Layer_1" data-name="Layer 1" xmlns="http://www.w3.org/2000/svg" viewBox="0 0 150 150"><defs><style>.cls-1{fill:#403181;}</style></defs><title>seo-icon</title><path class="cls-1" d="M62.62,10.46a52.13,52.13,0,1,0,52.13,52.13A52.13,52.13,0,0,0,62.62,10.46Zm0,5a47.09,47.09,0,0,1,38.51,20l-6.2,6.21a9.73,9.73,0,0,0-5-1.42A9.94,9.94,0,0,0,80,50.18a9.81,9.81,0,0,0,1.41,5L65.15,71.45a9.62,9.62,0,0,0-10,0L43.83,60.16a9.9,9.9,0,1,0-18.1-7.5H16.52A47.23,47.23,0,0,1,62.62,15.43ZM94.89,50.18a5,5,0,1,1-5-5A5,5,0,0,1,94.89,50.18ZM65.1,80a5,5,0,1,1-5-5A5,5,0,0,1,65.1,80ZM40.27,55.15a5,5,0,1,1-5-5A5,5,0,0,1,40.27,55.15Zm45.26,48.68a47.13,47.13,0,0,1-69.81-46.2h10a9.92,9.92,0,0,0,9.58,7.44,9.71,9.71,0,0,0,5-1.4L51.61,75a9.81,9.81,0,0,0-1.41,5,9.93,9.93,0,0,0,19.86,0,9.8,9.8,0,0,0-1.4-5L84.91,58.7a9.86,9.86,0,0,0,14.94-8.52,9.72,9.72,0,0,0-1.41-5l5.42-5.41A47.12,47.12,0,0,1,85.53,103.83Z"/><path class="cls-1" d="M124.68,25.36a9.93,9.93,0,0,0,9.57-7.45H149.5v-5H134.25a9.9,9.9,0,1,0-18.1,7.5l-4.36,4.36A62.06,62.06,0,1,0,96.3,114.68l7.49,7.49,3.51,3.51,20,20a13,13,0,1,0,18.41-18.4l-20-20-3.51-3.51-7.49-7.5a61.85,61.85,0,0,0,0-67.36l5-5A9.81,9.81,0,0,0,124.68,25.36Zm0-14.9a5,5,0,1,1-5,5A5,5,0,0,1,124.68,10.46Zm17.5,120.31a8.05,8.05,0,1,1-11.26,11.51l-.13-.13-20-20,11.38-11.38Zm-23.5-23.49L107.3,118.66l-6.87-6.87c.35-.27.68-.56,1-.84l1.12-.92c.54-.45,1.08-.91,1.6-1.39l.8-.74c1-1,2-1.94,3-3l.75-.79c.47-.53.93-1.07,1.39-1.61.31-.37.62-.74.92-1.12s.56-.67.83-1Zm-9.62-11.54c-.79,1.1-1.59,2.17-2.44,3.2-.25.3-.52.59-.77.88-.76.89-1.55,1.74-2.36,2.58-.35.36-.71.72-1.07,1.07-.83.81-1.69,1.59-2.57,2.35l-.89.77c-1,.85-2.1,1.66-3.19,2.44a57.18,57.18,0,1,1,13.29-13.29Z"/></svg>