<svg id="Layer_1" data-name="Layer 1" xmlns="http://www.w3.org/2000/svg" viewBox="0 0 100 100"><defs><style>.cls-1{fill:#403181;}</style></defs><title>logo-design</title><g id="Out_line" data-name="Out line"><path class="cls-1" d="M75.53,57.41a1.66,1.66,0,0,0,1.14-1.58V42.5A1.67,1.67,0,0,0,75,40.83a1.6,1.6,0,0,0-.53.09l-2.36.79a23.34,23.34,0,0,0-43.35-2.22l-4.29,1.43a1.67,1.67,0,0,0-1.14,1.58V55.83A1.67,1.67,0,0,0,25,57.5a1.6,1.6,0,0,0,.53-.09l2.36-.78a23.34,23.34,0,0,0,43.35,2.21ZM50,29.17A20,20,0,0,1,68.94,42.73,25.1,25.1,0,0,1,50.75,41a28.41,28.41,0,0,0-17.6-2.63A19.93,19.93,0,0,1,50,29.17ZM26.67,43.7l3.25-1.08A25.12,25.12,0,0,1,49.25,44a28.5,28.5,0,0,0,21.88,1.56l2.2-.74v9.82l-3.25,1.09a25.17,25.17,0,0,1-19.33-1.38,28.45,28.45,0,0,0-21.88-1.55l-2.2.73ZM50,69.17A20,20,0,0,1,31.06,55.6a25.15,25.15,0,0,1,18.19,1.72A28.34,28.34,0,0,0,66.85,60,20,20,0,0,1,50,69.17Z"/><path class="cls-1" d="M40,15.83h6.67v3.34H40Z"/><path class="cls-1" d="M53.33,15.83H60v3.34H53.33Z"/><path class="cls-1" d="M81.67,15.83h-15v3.34H80V32.5h3.33v-15a1.66,1.66,0,0,0-1.66-1.67Z"/><path class="cls-1" d="M80,39.17h3.33v6.66H80Z"/><path class="cls-1" d="M80,52.5h3.33v6.67H80Z"/><path class="cls-1" d="M80,79.17H66.67V82.5h15a1.66,1.66,0,0,0,1.66-1.67h0v-15H80Z"/><path class="cls-1" d="M53.33,79.17H60V82.5H53.33Z"/><path class="cls-1" d="M40,79.17h6.67V82.5H40Z"/><path class="cls-1" d="M20,65.83H16.67v15a1.66,1.66,0,0,0,1.66,1.67h15V79.17H20Z"/><path class="cls-1" d="M16.67,52.5H20v6.67H16.67Z"/><path class="cls-1" d="M16.67,39.17H20v6.66H16.67Z"/><path class="cls-1" d="M20,19.17H33.33V15.83h-15a1.66,1.66,0,0,0-1.66,1.67h0v15H20Z"/><path class="cls-1" d="M11.67,17.5h-10A1.67,1.67,0,0,0,0,19.17H0v60a1.66,1.66,0,0,0,1.67,1.66h10a1.66,1.66,0,0,0,1.66-1.66h0v-60a1.66,1.66,0,0,0-1.66-1.67Zm-8.34,60V20.83H10v3.34H6.67V27.5H10v3.33H6.67v3.34H10V37.5H6.67v3.33H10v3.34H6.67V47.5H10v3.33H6.67v3.34H10V57.5H6.67v3.33H10v3.34H6.67V67.5H10v3.33H6.67v3.34H10V77.5Z"/><path class="cls-1" d="M98.33,17.5H91.67A1.67,1.67,0,0,0,90,19.17h0V27.5H86.67A1.67,1.67,0,0,0,85,29.17h0V42.5h3.33V30.83H90V74.17a1.67,1.67,0,0,0,.12.62l3.33,8.33a1.67,1.67,0,0,0,2.17.93,1.7,1.7,0,0,0,.93-.93l3.33-8.33a1.67,1.67,0,0,0,.12-.62v-55a1.67,1.67,0,0,0-1.67-1.67Zm-5,3.33h3.34V27.5H93.33ZM95,78l-1.67-4.16v-43h3.34v43Z"/></g></svg>