<svg id="Layer_1" data-name="Layer 1" xmlns="http://www.w3.org/2000/svg" viewBox="0 0 150 150"><defs><style>.cls-1{fill:#403181;}</style></defs><title>email-marketing-icon</title><path class="cls-1" d="M60.18,17.65a2.91,2.91,0,1,0-2.06,5A2.92,2.92,0,0,0,61,19.71,2.93,2.93,0,0,0,60.18,17.65Z"/><path class="cls-1" d="M47.37,16.8H35.68a2.91,2.91,0,1,0,0,5.82H47.37a2.91,2.91,0,1,0,0-5.82Z"/><path class="cls-1" d="M49.7,33.09h-14a2.91,2.91,0,0,0,0,5.82h14a2.91,2.91,0,0,0,0-5.82Z"/><path class="cls-1" d="M148.38,61.07h0l-19.21-15,0,0V43a2.91,2.91,0,1,0-5.82,0V82.52L99.23,106.6l-2.79-2.53a31.72,31.72,0,0,0-15.36-7.7l7.56-7.56a2.9,2.9,0,0,0,0-4.11l-9.78-9.78,42.61-18.16a2.92,2.92,0,0,0,.91-4.74L108.47,38.11a12.37,12.37,0,0,0-17-17L77.55,7.2a2.9,2.9,0,0,0-4.73.92L53.21,54.18,42.65,64.73A15.7,15.7,0,1,0,64.86,86.94L66,85.83l10,10-.94,0a31.83,31.83,0,0,0-21.44,8.29l-2.79,2.53L26.69,82.52V6.32H59.28a2.91,2.91,0,0,0,0-5.82H23.78a2.91,2.91,0,0,0-2.91,2.91v42.2l-.07.06L1.59,61.09h0A2.92,2.92,0,0,0,.5,63.36v71.3A14.86,14.86,0,0,0,15.34,149.5H134.66a14.86,14.86,0,0,0,14.84-14.84V63.36A2.9,2.9,0,0,0,148.38,61.07Zm-19.25-7.62L142.2,63.63,129.13,76.7ZM97.91,25.12a6.56,6.56,0,0,1,6.55,6.55,6.41,6.41,0,0,1-.35,2.09l-8.29-8.29A6.41,6.41,0,0,1,97.91,25.12ZM76.49,14.36,89.16,27h0l13.37,13.38h0l12.68,12.67L109,55.73,73.85,20.54Zm-5.09,12,31.87,31.88L74.43,70.49,59.11,55.17ZM60.75,82.82a9.88,9.88,0,1,1-14-14L55.66,60l14,14Zm9.34-1.11L73.76,78l8.71,8.71L78.8,90.42ZM20.87,53.07V76.7L7.76,63.6ZM11.36,142.4l-.23.23a9,9,0,0,1-4.81-8V70.39l40.14,40.13Zm7.25,1.28L28.22,135H49.58a2.91,2.91,0,1,0,0-5.82H34.63l22.84-20.75a26,26,0,0,1,35.06,0l38.86,35.3Zm125.07-9a9,9,0,0,1-4.81,8c-.08-.08-.15-.16-.23-.23l-35.1-31.88,40.14-40.13Z"/><path class="cls-1" d="M128.39,1.47a2.9,2.9,0,0,0-4.11,0L112.52,13.22a2.91,2.91,0,0,0,4.12,4.12L128.39,5.58A2.9,2.9,0,0,0,128.39,1.47Z"/><path class="cls-1" d="M103.64.5a2.91,2.91,0,0,0-2.91,2.91V9.26a2.91,2.91,0,1,0,5.82,0V3.41A2.91,2.91,0,0,0,103.64.5Z"/><path class="cls-1" d="M126.42,23.06h-6a2.91,2.91,0,1,0,0,5.82h6a2.91,2.91,0,1,0,0-5.82Z"/><path class="cls-1" d="M63.57,130a2.93,2.93,0,0,0-2.06-.85,3,3,0,0,0-2.06.85,2.92,2.92,0,0,0,0,4.12,3,3,0,0,0,2.06.85,2.91,2.91,0,0,0,2.06-5Z"/></svg>