<svg width="133" height="123" viewBox="0 0 133 123" fill="none" xmlns="http://www.w3.org/2000/svg">
<g clip-path="url(#clip0_3931_33555)">
<path d="M126.003 67.0362C124.986 68.4995 123.657 69.6285 122.044 70.3568C118.674 71.8789 115.464 71.3439 112.639 69.1261C109.51 66.6693 108.586 63.3319 109.535 59.5332C110.403 56.0576 113.466 53.4719 117.076 52.962C120.765 52.4419 123.567 53.9294 125.804 56.7234C125.872 56.8074 125.938 56.8942 126.004 56.9792V57.0726C125.202 57.4891 124.485 58.0382 123.735 58.534C122.956 59.0495 122.962 59.0588 122.36 58.3659C120.219 55.9035 116.75 55.7634 114.631 58.0932C113.383 59.4659 112.975 61.1253 113.257 62.935C113.591 65.0846 114.721 66.6412 116.854 67.3304C118.999 68.0233 120.767 67.3211 122.264 65.7532C122.497 65.5095 122.65 65.0547 122.944 65.0463C123.228 65.0388 123.518 65.3741 123.809 65.5524C124.549 66.0044 125.213 66.574 126.005 66.9438V67.0372L126.003 67.0362Z" fill="#478AFF"/>
<path d="M44.502 53.3076C45.2171 54.7195 45.7144 56.138 46.0193 57.6106C47.3339 63.9642 46.0034 69.7266 41.8907 74.7692C38.7107 78.6687 34.5586 81.0415 29.5629 81.8399C23.5426 82.8017 18.1181 81.3431 13.3955 77.5295C9.48738 74.3732 7.10684 70.2617 6.29613 65.321C5.32496 59.3979 6.74465 54.0351 10.5242 49.3623C13.8647 45.2331 18.2448 42.8127 23.536 42.0815C27.7069 41.5044 31.6779 42.1889 35.4369 44.077C35.9088 44.3142 35.9116 44.3207 35.51 44.6616C34.7509 45.3068 34.1326 46.0586 33.7526 46.9811C33.6409 47.2519 33.5396 47.279 33.2778 47.1567C30.7583 45.9773 28.101 45.4637 25.3217 45.6243C21.7363 45.8307 18.5301 47.0521 15.7592 49.3194C12.491 51.9928 10.4839 55.432 9.88336 59.5912C9.15052 64.6664 10.5158 69.1822 13.9491 73.0286C16.5295 75.9196 19.7818 77.706 23.6186 78.2606C29.6446 79.1328 34.7669 77.2811 38.7914 72.7353C41.8372 69.2962 43.0626 65.1902 42.7399 60.6352C42.6235 58.9879 42.2247 57.3921 41.5792 55.8672C41.4337 55.5235 41.5078 55.4106 41.8438 55.2836C42.8862 54.8895 43.7392 54.22 44.502 53.3076Z" fill="#478AFF"/>
<path d="M35.4709 62.03C35.4587 67.121 31.3441 71.1803 26.2199 71.1579C21.0929 71.1355 17.0224 67.0538 17.043 61.9562C17.0637 56.8679 21.1773 52.8292 26.3156 52.8517C31.4107 52.8741 35.484 56.9576 35.4718 62.03H35.4709Z" fill="#478AFF"/>
<path d="M72.3925 71.1881C67.2158 71.2189 63.1284 67.197 63.1002 62.0424C63.0721 56.9644 67.0534 52.9388 72.0669 52.8417C76.7905 52.7502 81.5328 56.0222 81.5637 61.9631C81.59 67.1709 77.6303 71.1563 72.3925 71.1881ZM77.5402 61.9509C77.5627 61.6204 77.5195 61.2188 77.437 60.8238C77.0138 58.8031 75.9019 57.3305 73.8845 56.6936C71.9046 56.0689 70.1208 56.547 68.6936 58.0196C67.1989 59.5623 66.8761 61.4654 67.3293 63.5122C67.972 66.4145 70.8762 68.17 73.7156 67.3931C75.9976 66.7684 77.5383 64.6057 77.5402 61.9509Z" fill="#478AFF"/>
<path d="M87.3075 55.1043C88.2956 54.3217 89.3146 53.7073 90.4603 53.3104C92.1174 52.738 93.8026 52.6885 95.486 53.1125C98.2681 53.8128 99.7122 55.7514 100.308 58.4239C100.518 59.3652 100.59 60.3242 100.59 61.2879C100.59 64.2826 100.579 67.2782 100.601 70.2729C100.604 70.7062 100.463 70.7799 100.073 70.7706C99.0113 70.7454 97.9472 70.7398 96.886 70.7725C96.4318 70.7865 96.2817 70.6922 96.2855 70.1991C96.3127 67.0802 96.2911 63.9613 96.3033 60.8415C96.307 59.8041 96.0875 58.8376 95.4963 57.9776C94.7457 56.885 93.721 56.2827 92.3586 56.4088C90.7109 56.5619 89.3465 57.2716 88.32 58.5752C87.924 59.0785 87.7429 59.6565 87.7448 60.3055C87.7542 63.6261 87.7401 66.9476 87.7608 70.2682C87.7636 70.695 87.6378 70.7809 87.2381 70.7706C86.1299 70.7435 85.0199 70.7501 83.9108 70.7687C83.5786 70.7743 83.4519 70.7108 83.4529 70.3411C83.4651 64.7859 83.4641 59.2298 83.4557 53.6746C83.4557 53.3693 83.5082 53.2329 83.8592 53.2423C84.7956 53.2665 85.734 53.2647 86.6704 53.2423C86.9904 53.2348 87.0673 53.3655 87.0964 53.6419C87.1461 54.1126 87.2297 54.5795 87.3066 55.1033L87.3075 55.1043Z" fill="#478AFF"/>
<path d="M61.2104 62.0375C61.2104 64.7979 61.2029 67.5572 61.2189 70.3176C61.2207 70.6836 61.1241 70.7901 60.7535 70.7826C59.5993 70.7592 58.4433 70.7658 57.2882 70.7798C57.0077 70.7826 56.9138 70.706 56.9138 70.4156C56.9213 64.8184 56.9213 59.2212 56.9138 53.624C56.9138 53.3383 56.9973 53.2533 57.2835 53.2561C58.4386 53.2701 59.5937 53.2757 60.7488 53.2542C61.111 53.2477 61.2217 53.3383 61.2189 53.7127C61.202 56.488 61.2095 59.2632 61.2095 62.0385L61.2104 62.0375Z" fill="#478AFF"/>
<path d="M103.024 61.9705C103.024 59.2251 103.033 56.4798 103.015 53.7344C103.012 53.3385 103.127 53.246 103.509 53.2544C104.633 53.2806 105.758 53.2722 106.882 53.2582C107.18 53.2544 107.282 53.3319 107.282 53.6447C107.273 59.2289 107.273 64.813 107.282 70.3962C107.282 70.7118 107.174 70.7837 106.879 70.7809C105.739 70.7669 104.599 70.7613 103.46 70.7837C103.112 70.7902 103.014 70.6987 103.016 70.3476C103.031 67.5556 103.024 64.7635 103.024 61.9714V61.9705Z" fill="#478AFF"/>
<path d="M35.3252 49.4597C35.3327 47.1308 37.184 45.3071 39.5298 45.3164C41.8738 45.3258 43.711 47.1644 43.7035 49.4943C43.696 51.8166 41.8381 53.6469 39.4942 53.6394C37.1549 53.6319 35.3167 51.7895 35.3242 49.4597H35.3252Z" fill="#478AFF"/>
</g>
<defs>
<clipPath id="clip0_3931_33555">
<rect width="120" height="68" fill="white" transform="translate(6 28)"/>
</clipPath>
</defs>
</svg>
