<svg width="133" height="123" viewBox="0 0 133 123" fill="none" xmlns="http://www.w3.org/2000/svg">
<path d="M65.3667 68.9984C69.3277 68.9984 72.5388 65.8044 72.5388 61.8644C72.5388 57.9244 69.3277 54.7305 65.3667 54.7305C61.4056 54.7305 58.1946 57.9244 58.1946 61.8644C58.1946 65.8044 61.4056 68.9984 65.3667 68.9984Z" fill="#00D8FF"/>
<path fill-rule="evenodd" clip-rule="evenodd" d="M65.898 46.8285C78.1264 46.9113 91.468 47.7987 100.626 55.922C100.895 56.1609 101.155 56.4095 101.408 56.666C103.568 58.8565 104.697 62.3932 102.953 65.3038C99.3752 71.2796 91.3735 73.8859 83.6264 75.4902C72.0402 77.8894 59.9255 77.9085 48.3441 75.796C41.6797 74.5789 34.8648 72.4457 30.1288 67.9834C28.2853 66.2469 26.7093 63.9624 26.956 61.4198C27.3564 57.3064 31.3236 54.6666 34.663 52.8791C43.938 47.915 55.2391 46.8046 65.898 46.8285ZM65.0107 48.6972C53.4405 48.7753 40.9174 49.5097 31.9835 56.8683C31.6712 57.1248 31.37 57.394 31.0802 57.676C30.8928 57.8576 30.7118 58.0472 30.5372 58.2415C28.9692 59.994 28.4295 62.809 29.9094 64.9135C31.3989 67.0307 33.6604 68.5585 35.9891 69.8043C44.6988 74.4626 54.9909 75.2894 65.0251 75.3245C75.1842 75.3611 85.6605 74.4403 94.6344 69.8251C98.2093 67.985 102.233 65.2831 102.09 61.8037C101.959 58.6111 98.8291 56.6389 96.4859 55.2306C95.8517 54.8498 95.1998 54.4977 94.5383 54.1664C85.6301 49.7264 75.1906 48.6749 65.0107 48.6972Z" fill="#00D8FF"/>
<path fill-rule="evenodd" clip-rule="evenodd" d="M81.5646 28.001C86.0379 28.1141 88.3555 33.4637 88.6614 37.4147C88.7223 38.2001 88.7447 38.9886 88.7351 39.7772C88.7255 40.6311 88.679 41.4851 88.6037 42.3358C87.6604 52.8694 82.8251 62.9012 77.1313 72.1652C71.5624 81.2268 64.7715 90.2629 55.5333 94.4624C52.479 95.8516 48.8465 96.7087 46.1429 95.1586C42.4368 93.0349 42.0315 88.0676 42.1004 84.2999C42.118 83.3743 42.1789 82.4487 42.275 81.5263C43.6988 67.8893 50.6483 54.9707 59.3452 43.8413C64.4191 37.3477 70.4557 30.9068 77.9753 28.5745C79.1589 28.2065 80.0991 27.9834 81.5646 28.001ZM81.35 29.8681C76.0982 29.9509 71.383 33.8222 67.2076 37.8448C56.23 48.4183 48.1402 62.4807 44.8857 77.2281C44.6342 78.3704 44.4228 79.5206 44.2674 80.6788C44.1473 81.5757 44.0592 82.4774 44.0128 83.3823C43.9759 84.1024 43.9631 84.824 43.9855 85.5457C44.0016 86.1097 44.0384 86.6736 44.1009 87.2344C44.1473 87.663 44.2098 88.0899 44.2882 88.5137C44.3475 88.8275 44.4164 89.1398 44.4965 89.4504C44.5621 89.7022 44.6358 89.9523 44.7191 90.2008C45.3742 92.1651 47.0623 94.0418 49.3286 94.1039C54.6156 94.2473 59.5934 90.4127 63.897 86.2451C71.4519 78.9311 77.0816 69.7405 81.4797 60.0798C85.0289 52.28 88.2754 43.8014 86.4624 35.2162C86.3935 34.8912 86.3134 34.5694 86.2221 34.2507C86.1468 33.9911 86.062 33.7346 85.9691 33.4813C85.2643 31.5711 83.6067 29.8633 81.35 29.8681Z" fill="#00D8FF"/>
<path fill-rule="evenodd" clip-rule="evenodd" d="M49.5267 28.0665C55.2349 28.1765 60.3617 32.0302 64.9135 36.3459C73.2196 44.2207 79.3458 54.2382 83.9937 64.7814C87.5942 72.9493 90.9064 82.1176 87.9626 90.7363C87.0352 93.4526 84.6888 95.9378 81.5609 96.0016C75.8254 96.1163 70.5096 91.9678 65.8969 87.5023C54.3251 76.2964 45.734 61.5028 42.7902 45.8138C42.5788 44.6922 42.4106 43.5611 42.2953 42.4253C42.2008 41.4981 42.1415 40.5661 42.1255 39.6341C42.1127 38.8822 42.1287 38.1302 42.1816 37.3815C42.2168 36.8812 42.2681 36.3842 42.3369 35.8887C42.4026 35.4235 42.4859 34.9599 42.59 34.5011C42.6589 34.1968 42.7357 33.8957 42.8238 33.5962C43.6871 30.6601 45.9326 28.0442 49.5267 28.0665ZM49.3104 29.9353C45.9678 30.0086 44.4383 33.9292 44.1308 36.6805C44.0683 37.2445 44.0299 37.8132 44.0122 38.3819C43.9898 39.1084 43.9994 39.8364 44.0363 40.5629C44.5616 51.0758 49.2864 61.2399 54.9882 70.5468C60.3569 79.309 66.8403 88.036 75.7582 92.5222C78.3336 93.8174 81.4632 94.8354 83.6878 93.6119C86.4779 92.0761 86.8206 88.4168 86.9696 85.6894C87.0096 84.947 87.0144 84.2014 86.9904 83.4574C86.9616 82.5238 86.8879 81.5919 86.7774 80.6647C85.7491 72.003 81.8924 63.8064 77.4623 56.0607C71.9495 46.4256 65.1954 36.8223 55.6369 31.8056C53.6573 30.7669 51.5143 29.9177 49.3104 29.9353Z" fill="#00D8FF"/>
</svg>
