<svg width="133" height="123" viewBox="0 0 133 123" fill="none" xmlns="http://www.w3.org/2000/svg">
<path d="M50.0668 28C48.0318 28.0044 46.0398 29.1576 45.0155 30.9166L29.0822 58.5445C28.0735 60.3082 28.0735 62.6137 29.0822 64.3774L45.0155 92.0056C46.0398 93.7646 48.0318 94.9181 50.0668 94.9222H81.9335C83.9685 94.9178 85.9605 93.7646 86.9848 92.0056L102.918 64.3774C103.927 62.6137 103.927 60.3082 102.918 58.5445L86.9848 30.9166C85.9605 29.1573 83.9685 28.0041 81.9335 28H50.0668ZM50.3562 44.1629C50.4 44.1585 50.4459 44.1585 50.4898 44.1629H55.9861C56.1083 44.1669 56.2274 44.2016 56.3325 44.2639C56.4376 44.3261 56.5252 44.4139 56.5872 44.519L65.9113 61.1047C65.9584 61.187 65.9884 61.2781 65.9996 61.3721C66.0114 61.2781 66.0414 61.187 66.0885 61.1047L75.3902 44.519C75.4543 44.4109 75.5454 44.3212 75.6547 44.2588C75.7639 44.1964 75.8875 44.1634 76.0133 44.1629H81.51C81.9965 44.167 82.3612 44.779 82.1331 45.2092L73.0315 61.4611L82.1331 77.6907C82.3826 78.1232 82.0094 78.7634 81.51 78.7593H76.0133C75.8853 78.7566 75.7602 78.7202 75.6508 78.6537C75.5414 78.5872 75.4515 78.4931 75.3902 78.3809L66.0885 61.7949C66.0414 61.7129 66.0114 61.6215 65.9999 61.5278C65.9884 61.6219 65.9583 61.7128 65.9113 61.7951L56.5869 78.3809C56.5276 78.4899 56.4413 78.582 56.3361 78.6483C56.231 78.7145 56.1106 78.7528 55.9864 78.7593H50.4895C49.99 78.7637 49.6168 78.1232 49.8664 77.6907L58.968 61.4611L49.8664 45.2092C49.6483 44.8166 49.9147 44.2467 50.3562 44.1629Z" fill="#3498DB"/>
<path d="M50.3212 44.1595C50.365 44.1552 50.4109 44.1552 50.4547 44.1595H55.9511C56.0732 44.1635 56.1924 44.1983 56.2975 44.2606C56.4025 44.3228 56.4901 44.4106 56.5521 44.5157L65.8762 61.1015C65.9233 61.1837 65.9535 61.2748 65.9645 61.3687C65.9763 61.2748 66.0064 61.1837 66.0534 61.1015L75.3552 44.5157C75.4193 44.4076 75.5104 44.3179 75.6195 44.2554C75.7288 44.193 75.8524 44.16 75.9782 44.1595H81.4749C81.9614 44.1637 82.3262 44.7758 82.0981 45.2059L72.9963 61.4578L82.0981 77.6874C82.3476 78.1198 81.9743 78.7602 81.4749 78.756H75.9782C75.8502 78.7533 75.7252 78.7168 75.6157 78.6505C75.5063 78.584 75.4164 78.4897 75.3552 78.3776L66.0534 61.7915C66.0064 61.7096 65.9763 61.6182 65.9648 61.5246C65.9535 61.6187 65.9231 61.7095 65.8762 61.7918L56.5518 78.3776C56.4925 78.4867 56.4062 78.5788 56.301 78.6451C56.1959 78.7113 56.0755 78.7496 55.9513 78.756H50.4544C49.9549 78.7603 49.5817 78.1198 49.8313 77.6874L58.9329 61.4578L49.8313 45.2059C49.6132 44.8134 49.8797 44.2433 50.3212 44.1595Z" fill="white"/>
</svg>
